<?xml version="1.0" encoding="UTF-8"?>
<svg width="80px" height="80px" viewBox="0 0 80 80" version="1.1" xmlns="http://www.w3.org/2000/svg" xmlns:xlink="http://www.w3.org/1999/xlink">
    <!-- Generator: Sketch 46.2 (44496) - http://www.bohemiancoding.com/sketch -->
    <title>Artboard</title>
    <desc>Created with Sketch.</desc>
    <defs>
        <path d="M62,42 L62,47 L62,42 Z" id="path-1"></path>
    </defs>
    <g id="Page-1" stroke="none" stroke-width="1" fill="none" fill-rule="evenodd">
        <g id="Artboard">
            <g id="Group" transform="translate(3.000000, 16.000000)">
                <rect id="Rectangle-3" stroke="#000000" stroke-width="2" x="17" y="17" width="19" height="19" rx="2"></rect>
                <rect id="Rectangle-3" stroke="#000000" stroke-width="2" x="36" y="17" width="19" height="15" rx="2"></rect>
                <path d="M15.0012656,23 C15.0004226,22.9196794 15,22.8392592 15,22.7587413 C15,10.1894355 25.2974508,0 38,0 C50.7025492,0 61,10.1894355 61,22.7587413 C61,22.8392592 60.9995774,22.9196794 60.9987344,23 L15.0012656,23 Z" id="Combined-Shape" stroke="#000000" stroke-width="2" fill="#D7EED3"></path>
                <path d="M0.000959690857,29 C0.000320493185,28.9484851 0,28.8968972 0,28.8452381 C0,21.751009 6.04415588,16 13.5,16 C20.9558441,16 27,21.751009 27,28.8452381 C27,28.8968972 26.9996795,28.9484851 26.9990403,29 L0.000959690857,29 Z" id="Combined-Shape" stroke="#000000" stroke-width="2" fill="#D7EED3"></path>
                <path d="M48.0009597,28 C48.0003205,27.9484851 48,27.8968972 48,27.8452381 C48,20.751009 54.0441559,15 61.5,15 C68.9558441,15 75,20.751009 75,27.8452381 C75,27.8968972 74.9996795,27.9484851 74.9990403,28 L48.0009597,28 Z" id="Combined-Shape" stroke="#000000" stroke-width="2" fill="#D7EED3"></path>
                <g id="Rectangle-4">
                    <use fill="#D8D8D8" fill-rule="evenodd" xlink:href="#path-1"></use>
                    <path stroke="#000000" stroke-width="2" d=""></path>
                </g>
                <path d="M28,37.0875 L28,50.9125" id="Line" stroke="#000000" stroke-width="2" stroke-linecap="square"></path>
            </g>
        </g>
    </g>
</svg>