<?xml version="1.0" encoding="UTF-8"?>
<svg width="222px" height="208px" viewBox="0 0 222 208" version="1.1" xmlns="http://www.w3.org/2000/svg" xmlns:xlink="http://www.w3.org/1999/xlink">
    <!-- Generator: Sketch 47.1 (45422) - http://www.bohemiancoding.com/sketch -->
    <title>Artboard</title>
    <desc>Created with Sketch.</desc>
    <defs></defs>
    <g id="Page-1" stroke="none" stroke-width="1" fill="none" fill-rule="evenodd">
        <g id="Artboard">
            <g id="7145" transform="translate(-7.000000, 7.000000)">
                <path d="M26.9549328,88.5798903 L21.7529328,88.5798903 L21.7529328,87.4068903 C21.7529328,86.2168843 21.4724356,85.1883946 20.9114328,84.3213903 C20.35043,83.4543859 19.4069394,83.0208903 18.0809328,83.0208903 C17.3669292,83.0208903 16.7804351,83.1568889 16.3214328,83.4288903 C15.8624305,83.7008916 15.505434,84.0493881 15.2504328,84.4743903 C14.9954315,84.8993924 14.8169333,85.3923875 14.7149328,85.9533903 C14.6129322,86.5143931 14.5619328,87.1008872 14.5619328,87.7128903 C14.5619328,88.4268938 14.5874325,89.0303878 14.6384328,89.5233903 C14.689433,90.0163927 14.8169317,90.4413885 15.0209328,90.7983903 C15.2249338,91.155392 15.5224308,91.4698889 15.9134328,91.7418903 C16.3044347,92.0138916 16.8399294,92.2858889 17.5199328,92.5578903 L21.4979328,94.1388903 C22.6539385,94.5808925 23.5889292,95.0993873 24.3029328,95.6943903 C25.0169363,96.2893932 25.5694308,96.9863863 25.9604328,97.7853903 C26.3514347,98.5843943 26.6149321,99.5023851 26.7509328,100.53939 C26.8869334,101.576395 26.9549328,102.757884 26.9549328,104.08389 C26.9549328,105.613898 26.8019343,107.033384 26.4959328,108.34239 C26.1899312,109.651397 25.6884362,110.773386 24.9914328,111.70839 C24.2944293,112.643395 23.3679385,113.382888 22.2119328,113.92689 C21.055927,114.470893 19.6449411,114.74289 17.9789328,114.74289 C16.7209265,114.74289 15.5479382,114.521892 14.4599328,114.07989 C13.3719273,113.637888 12.4369367,113.034394 11.6549328,112.26939 C10.8729288,111.504386 10.2524351,110.594896 9.79343276,109.54089 C9.33443046,108.486885 9.10493276,107.347896 9.10493276,106.12389 L9.10493276,104.18589 L14.3069328,104.18589 L14.3069328,105.81789 C14.3069328,106.769895 14.58743,107.628386 15.1484328,108.39339 C15.7094356,109.158394 16.6529261,109.54089 17.9789328,109.54089 C18.8629372,109.54089 19.5514303,109.413392 20.0444328,109.15839 C20.5374352,108.903389 20.9114315,108.546393 21.1664328,108.08739 C21.421434,107.628388 21.5829324,107.058894 21.6509328,106.37889 C21.7189331,105.698887 21.7529328,104.950894 21.7529328,104.13489 C21.7529328,103.182886 21.7189331,102.400893 21.6509328,101.78889 C21.5829324,101.176887 21.4384339,100.683892 21.2174328,100.30989 C20.9964317,99.9358884 20.6904347,99.6298915 20.2994328,99.3918903 C19.9084308,99.1538891 19.389936,98.8988916 18.7439328,98.6268903 L15.0209328,97.0968903 C12.7769215,96.1788857 11.2724366,94.9633978 10.5074328,93.4503903 C9.74242893,91.9373827 9.35993276,90.0419017 9.35993276,87.7638903 C9.35993276,86.4038835 9.54693089,85.1118964 9.92093276,83.8878903 C10.2949346,82.6638841 10.8474291,81.6098947 11.5784328,80.7258903 C12.3094364,79.8418858 13.2359271,79.1363929 14.3579328,78.6093903 C15.4799384,78.0823876 16.7889253,77.8188903 18.2849328,77.8188903 C19.5769392,77.8188903 20.7584274,78.0568879 21.8294328,78.5328903 C22.9004381,79.0088926 23.8184289,79.6378864 24.5834328,80.4198903 C25.3484366,81.2018942 25.9349307,82.0773854 26.3429328,83.0463903 C26.7509348,84.0153951 26.9549328,85.0098852 26.9549328,86.0298903 L26.9549328,88.5798903 Z M41.0309328,114.43689 L36.4409328,114.43689 L29.0459328,78.1248903 L34.5539328,78.1248903 L38.6849328,103.47189 L38.7869328,103.47189 L42.9689328,78.1248903 L48.4769328,78.1248903 L41.0309328,114.43689 Z M51.2819328,86.6928903 C51.2819328,85.230883 51.5369302,83.9388959 52.0469328,82.8168903 C52.5569353,81.6948847 53.2284286,80.7683939 54.0614328,80.0373903 C54.8944369,79.3063866 55.8294276,78.7538921 56.8664328,78.3798903 C57.9034379,78.0058884 58.9489275,77.8188903 60.0029328,77.8188903 C61.056938,77.8188903 62.1024276,78.0058884 63.1394328,78.3798903 C64.1764379,78.7538921 65.1114286,79.3063866 65.9444328,80.0373903 C66.7774369,80.7683939 67.4489302,81.6948847 67.9589328,82.8168903 C68.4689353,83.9388959 68.7239328,85.230883 68.7239328,86.6928903 L68.7239328,88.5288903 L63.5219328,88.5288903 L63.5219328,86.6928903 C63.5219328,85.434884 63.1734362,84.5083932 62.4764328,83.9133903 C61.7794293,83.3183873 60.9549375,83.0208903 60.0029328,83.0208903 C59.050928,83.0208903 58.2264362,83.3183873 57.5294328,83.9133903 C56.8324293,84.5083932 56.4839328,85.434884 56.4839328,86.6928903 L56.4839328,105.86889 C56.4839328,107.126897 56.8324293,108.053387 57.5294328,108.64839 C58.2264362,109.243393 59.050928,109.54089 60.0029328,109.54089 C60.9549375,109.54089 61.7794293,109.243393 62.4764328,108.64839 C63.1734362,108.053387 63.5219328,107.126897 63.5219328,105.86889 L63.5219328,99.0348903 L59.3909328,99.0348903 L59.3909328,94.4448903 L68.7239328,94.4448903 L68.7239328,105.86889 C68.7239328,107.364898 68.4689353,108.665385 67.9589328,109.77039 C67.4489302,110.875396 66.7774369,111.793387 65.9444328,112.52439 C65.1114286,113.255394 64.1764379,113.807888 63.1394328,114.18189 C62.1024276,114.555892 61.056938,114.74289 60.0029328,114.74289 C58.9489275,114.74289 57.9034379,114.555892 56.8664328,114.18189 C55.8294276,113.807888 54.8944369,113.255394 54.0614328,112.52439 C53.2284286,111.793387 52.5569353,110.875396 52.0469328,109.77039 C51.5369302,108.665385 51.2819328,107.364898 51.2819328,105.86889 L51.2819328,86.6928903 Z M82.7999328,78.1248903 L98.3039328,78.1248903 L98.3039328,83.0208903 L88.0019328,83.0208903 L88.0019328,94.0368903 L96.9779328,94.0368903 L96.9779328,98.9328903 L88.0019328,98.9328903 L88.0019328,114.43689 L82.7999328,114.43689 L82.7999328,78.1248903 Z M106.871933,94.3428903 L109.829933,94.3428903 C110.747937,94.3428903 111.47893,94.2153915 112.022933,93.9603903 C112.566935,93.705389 112.983431,93.3398926 113.272433,92.8638903 C113.561434,92.3878879 113.756932,91.8013937 113.858933,91.1043903 C113.960933,90.4073868 114.011933,89.5998949 114.011933,88.6818903 C114.011933,87.7638857 113.960933,86.9563937 113.858933,86.2593903 C113.756932,85.5623868 113.544434,84.9673927 113.221433,84.4743903 C112.898431,83.9813878 112.447936,83.6158915 111.869933,83.3778903 C111.29193,83.1398891 110.526938,83.0208903 109.574933,83.0208903 L106.871933,83.0208903 L106.871933,94.3428903 Z M101.669933,78.1248903 L110.033933,78.1248903 C116.153963,78.1248903 119.213933,81.6778547 119.213933,88.7838903 C119.213933,90.8919008 118.882436,92.7023827 118.219433,94.2153903 C117.556429,95.7283978 116.391941,96.9438857 114.725933,97.8618903 L120.335933,114.43689 L114.827933,114.43689 L109.982933,98.9328903 L106.871933,98.9328903 L106.871933,114.43689 L101.669933,114.43689 L101.669933,78.1248903 Z M123.548933,78.1248903 L128.750933,78.1248903 L128.750933,114.43689 L123.548933,114.43689 L123.548933,78.1248903 Z M133.799933,78.1248903 L149.303933,78.1248903 L149.303933,83.0208903 L139.001933,83.0208903 L139.001933,93.6798903 L147.977933,93.6798903 L147.977933,98.5758903 L139.001933,98.5758903 L139.001933,109.23489 L149.303933,109.23489 L149.303933,114.43689 L133.799933,114.43689 L133.799933,78.1248903 Z M152.465933,78.1248903 L157.463933,78.1248903 L165.317933,100.00389 L165.419933,100.00389 L165.419933,78.1248903 L170.621933,78.1248903 L170.621933,114.43689 L165.725933,114.43689 L157.769933,92.6088903 L157.667933,92.6088903 L157.667933,114.43689 L152.465933,114.43689 L152.465933,78.1248903 Z M175.313933,78.1248903 L183.014933,78.1248903 C185.972948,78.1248903 188.233925,78.949382 189.797933,80.5983903 C191.361941,82.2473985 192.143933,84.5508755 192.143933,87.5088903 L192.143933,104.49189 C192.143933,107.891907 191.319441,110.399382 189.670433,112.01439 C188.021425,113.629398 185.649948,114.43689 182.555933,114.43689 L175.313933,114.43689 L175.313933,78.1248903 Z M180.515933,109.54089 L182.912933,109.54089 C184.37494,109.54089 185.41193,109.175394 186.023933,108.44439 C186.635936,107.713387 186.941933,106.565898 186.941933,105.00189 L186.941933,87.5088903 C186.941933,86.0808831 186.652936,84.9758942 186.074933,84.1938903 C185.49693,83.4118864 184.44294,83.0208903 182.912933,83.0208903 L180.515933,83.0208903 L180.515933,109.54089 Z M197.039933,78.1248903 L202.241933,78.1248903 L202.241933,109.23489 L212.543933,109.23489 L212.543933,114.43689 L197.039933,114.43689 L197.039933,78.1248903 Z M216.062933,99.0858903 L208.922933,78.1248903 L214.430933,78.1248903 L218.612933,92.5578903 L218.714933,92.5578903 L222.896933,78.1248903 L228.404933,78.1248903 L221.264933,99.0858903 L221.264933,114.43689 L216.062933,114.43689 L216.062933,99.0858903 Z" id="SVG-FRIENDLY" fill="#4D9F16" transform="translate(118.754933, 96.280890) rotate(-16.000000) translate(-118.754933, -96.280890) "></path>
                <path d="M116.034,193.428 L115.794,193.428 C107.077,193.416 98.505,192.213 90.287,189.931 C90.154,188.81 90.581,188.291 91.867,187.737 C92.567,187.434 93.273,187.237 94.035,187.237 C94.288,187.237 94.547,187.259 94.814,187.306 C95.013,187.342 95.208,187.362 95.399,187.362 C95.915,187.362 96.394,187.216 96.796,186.848 C103.022,188.184 109.429,188.878 115.918,188.878 C124.325,188.878 132.873,187.713 141.355,185.269 C156.811,180.816 170.19,172.654 180.805,162.028 L180.815,162.028 L180.815,162.017 C196.079,146.733 205.626,126.353 207.408,104.591 C207.662,105.079 208.028,105.499 208.407,105.704 C208.565,105.789 208.759,105.882 208.924,105.882 C208.945,105.882 208.966,105.881 208.986,105.877 C209.769,105.761 210.631,105.94 211.362,105.349 C211.609,105.344 211.796,105.278 211.939,105.168 C211.853,106.187 211.751,107.203 211.633,108.216 C211.616,108.176 211.598,108.138 211.577,108.099 C211.336,107.645 210.917,107.397 210.45,107.397 C210.259,107.397 210.06,107.438 209.861,107.523 C209.201,107.802 208.845,108.604 209.126,109.175 C209.354,109.636 210.08,110.002 210.633,110.002 C210.767,110.002 210.891,109.98 210.995,109.934 C211.186,109.848 211.344,109.724 211.465,109.573 C211.387,110.167 211.304,110.761 211.215,111.352 C211.173,111.341 211.129,111.336 211.085,111.336 C211.001,111.336 210.918,111.356 210.849,111.398 C210.623,111.535 210.552,111.766 210.719,111.965 C210.797,112.059 210.925,112.113 211.087,112.179 C208.809,126.507 203.314,140.075 195.16,151.882 C195.148,151.854 195.135,151.826 195.122,151.798 C194.908,151.347 194.461,151 193.971,150.841 C194.025,150.672 194.021,150.482 193.938,150.34 C193.837,150.167 193.649,150.073 193.451,150.073 C193.342,150.073 193.231,150.101 193.128,150.16 C192.867,150.317 192.766,150.585 192.861,150.839 C192.858,150.84 192.855,150.841 192.853,150.842 C192.058,151.154 191.502,152.411 191.816,153.182 C192.051,153.759 192.768,154.157 193.493,154.219 C187.366,162.55 179.876,169.933 171.235,175.988 C171.247,175.776 171.174,175.545 171.008,175.316 C170.743,174.945 170.207,174.746 169.412,174.218 C169.359,175.117 169.231,175.603 169.33,176.051 C169.422,176.457 169.682,176.746 170.03,176.819 C161.838,182.373 152.641,186.751 142.614,189.64 C133.751,192.193 124.82,193.417 116.034,193.428 M177.538,166.975 C177.441,166.975 177.356,166.993 177.299,167.033 C177.143,167.141 177.222,167.56 177.182,168.008 C177.626,167.937 177.971,167.968 178.162,167.819 C178.28,167.732 178.253,167.211 178.133,167.141 C177.978,167.046 177.734,166.975 177.538,166.975 M203.728,128.778 C203.616,128.778 203.501,128.792 203.384,128.821 L203.297,128.843 L203.222,128.887 C203.047,128.989 202.9,129.114 202.786,129.26 L203.686,130.02 L203.707,130.102 L203.708,130.104 L203.759,130.096 L203.732,130.084 L203.754,130.077 L203.783,130.101 L203.867,130.038 L203.862,130.03 L204.309,129.837 L204.289,129.845 L204.895,129.583 L204.873,129.53 L204.863,129.513 L204.859,129.503 L204.856,129.499 L204.853,129.489 L204.851,129.487 L204.832,129.45 L204.832,129.449 L204.822,129.437 L204.821,129.432 L204.817,129.424 L204.815,129.421 L204.81,129.411 L204.807,129.408 L204.8,129.398 L204.798,129.394 L204.795,129.387 L204.793,129.382 L204.787,129.374 L204.785,129.37 L204.778,129.36 L204.778,129.359 L204.771,129.349 L204.771,129.348 L204.765,129.337 L204.763,129.336 L204.756,129.324 L204.755,129.323 L204.747,129.312 C204.506,128.97 204.139,128.778 203.728,128.778 M208.09,122.696 L208.09,122.696 C208.078,122.539 208.104,122.424 208.058,122.383 L207.794,122.315 L207.772,122.563 C207.812,122.624 207.931,122.633 208.09,122.696 M209.949,117.049 L209.949,117.049 C209.738,116.783 209.644,116.665 209.53,116.665 C209.439,116.665 209.335,116.741 209.147,116.877 C209.402,116.933 209.605,116.978 209.949,117.049 M83.414,187.743 C63.32,180.509 45.828,166.686 34.24,148.1 L38.807,146.784 C46.115,158.147 55.764,167.586 66.892,174.627 L66.613,174.872 L66.133,175.297 C66.285,175.481 66.474,175.616 66.688,175.704 L66.714,175.715 L67.059,174.732 C75.46,180.022 84.699,183.946 94.411,186.303 C93.778,186.37 93.14,186.417 92.507,186.482 C91.68,186.568 90.853,186.673 90.024,186.754 C88.702,186.885 87.41,187.384 86.074,187.384 C85.445,187.384 84.807,187.274 84.151,186.964 C83.905,187.223 83.66,187.483 83.414,187.743 M212.149,102.06 C211.599,101.216 210.656,100.734 209.688,100.734 C209.392,100.734 209.094,100.779 208.805,100.872 C208.21,101.062 207.856,101.43 207.59,101.878 C207.655,100.63 207.694,99.377 207.707,98.122 L212.274,96.806 C212.281,98.563 212.239,100.317 212.149,102.06" id="Fill-3" fill="#4D9F16"></path>
                <path d="M19.788,91.925 C19.971,88.524 20.336,85.148 20.874,81.817 L21.637,82.336 C21.799,82.076 21.881,81.757 21.871,81.383 L21.858,81.264 C21.799,80.967 21.694,80.717 21.549,80.518 C21.468,80.407 21.378,80.313 21.27,80.234 L21.227,80.201 L21.119,80.37 C21.122,80.354 21.125,80.34 21.128,80.323 L21.206,80.188 L21.129,80.317 C21.834,76.351 22.786,72.446 23.973,68.625 C24.03,68.691 24.101,68.753 24.184,68.81 C24.496,69.028 24.956,69.032 25.713,69.22 C25.484,68.5 25.437,68.081 25.229,67.757 C25.061,67.497 24.82,67.348 24.569,67.348 C24.503,67.348 24.436,67.359 24.369,67.38 C33.074,40.639 53.329,18.141 80.979,7.397 C80.984,7.465 80.99,7.534 80.995,7.607 C81.463,7.606 81.788,7.604 82.092,7.604 C82.139,7.604 82.186,7.604 82.232,7.604 C82.204,7.398 82.215,7.151 82.196,6.934 C84.514,6.069 86.881,5.287 89.299,4.59 C94.248,3.164 99.213,2.154 104.167,1.536 C104.098,1.909 104.238,2.326 104.583,2.696 C104.903,3.042 105.421,3.222 105.909,3.222 C106.293,3.222 106.659,3.111 106.897,2.879 C107.311,2.483 107.278,1.742 106.861,1.239 C109.922,0.945 112.971,0.801 116.006,0.801 C147.277,0.801 176.695,16.158 194.629,41.551 L189.984,42.889 C187.425,39.395 184.636,36.111 181.644,33.048 C181.748,33.073 181.856,33.094 181.966,33.113 C182.129,33.141 182.286,33.154 182.433,33.154 C183.39,33.154 183.993,32.581 183.963,31.545 C183.946,30.937 183.65,30.32 183.439,29.575 C182.928,29.773 182.487,30.035 182.052,30.179 C182.072,30.121 182.089,30.062 182.105,30.002 C182.29,29.338 181.966,28.762 181.297,28.504 C181.318,28.73 181.338,28.936 181.358,29.142 L181.224,29.145 L181.103,28.957 C180.743,27.826 180.68,27.784 179.529,27.769 C179.521,27.768 179.512,27.768 179.503,27.768 C179.186,27.768 178.955,27.867 178.744,28.098 C178.386,28.493 178.042,28.889 177.848,29.38 C176.629,28.269 175.384,27.193 174.11,26.151 C174.166,26.132 174.22,26.11 174.272,26.085 C175.004,25.744 175.304,24.662 174.903,23.823 C174.69,23.373 174.243,23.027 173.753,22.867 C173.808,22.698 173.804,22.508 173.722,22.366 C173.619,22.193 173.432,22.098 173.234,22.098 C173.125,22.098 173.014,22.127 172.91,22.185 C172.649,22.344 172.548,22.61 172.643,22.865 C172.64,22.866 172.637,22.867 172.634,22.869 C172.152,23.058 171.757,23.597 171.592,24.163 C155.824,12.159 136.324,5.351 115.999,5.351 C107.593,5.351 99.04,6.517 90.559,8.96 C52.547,19.912 27.086,53.304 24.427,90.588 L19.788,91.925 M23.249,78.371 C23.221,78.643 23.166,78.815 23.203,78.97 L23.525,79.122 C23.649,79.019 23.719,78.853 23.812,78.715 C23.659,78.619 23.504,78.524 23.249,78.371 M54.586,25.343 L54.566,25.354 L54.515,25.38 L54.512,25.381 L54.554,25.482 L54.158,25.564 L53.533,25.691 L53.548,25.754 C53.69,26.304 54.152,26.65 54.731,26.65 C54.755,26.65 54.779,26.65 54.804,26.648 L54.913,26.645 L55.013,26.602 L55.251,26.481 L54.739,25.607 L54.729,25.451 L54.785,25.436 L54.728,25.449 L54.729,25.447 L54.652,25.463 L54.587,25.343 L54.586,25.343 M168.525,18.223 C168.33,18.223 168.159,18.282 168.116,18.496 C168.089,18.638 168.163,18.901 168.268,18.95 C168.383,19.008 168.548,19.051 168.688,19.051 C168.766,19.051 168.835,19.038 168.886,19.008 C169.137,18.851 169.309,18.577 169.54,18.325 C169.17,18.287 168.918,18.259 168.663,18.231 C168.617,18.226 168.57,18.223 168.525,18.223 M152.525,85.223 C152.33,85.223 152.159,85.282 152.116,85.496 C152.089,85.638 152.163,85.901 152.268,85.95 C152.383,86.008 152.548,86.051 152.688,86.051 C152.766,86.051 152.835,86.038 152.886,86.008 C153.137,85.851 153.309,85.577 153.54,85.325 C153.17,85.287 152.918,85.259 152.663,85.231 C152.617,85.226 152.57,85.223 152.525,85.223 M162.602,15.94 C162.535,15.94 162.471,15.951 162.413,15.974 C162.111,16.093 161.972,16.483 162.147,16.781 C162.258,16.969 162.403,17.131 162.617,17.131 C162.664,17.131 162.715,17.123 162.77,17.105 C163.044,17.018 163.319,16.481 163.213,16.268 C163.117,16.077 162.843,15.94 162.602,15.94 M162.602,15.94 C162.535,15.94 162.471,15.951 162.413,15.974 C162.111,16.093 161.972,16.483 162.147,16.781 C162.258,16.969 162.403,17.131 162.617,17.131 C162.664,17.131 162.715,17.123 162.77,17.105 C163.044,17.018 163.319,16.481 163.213,16.268 C163.117,16.077 162.843,15.94 162.602,15.94 M167.192,15.619 L166.938,15.679 L167.033,15.921 L167.284,15.867 L167.192,15.619 M151.397,9.069 C151.369,9.069 151.343,9.072 151.318,9.078 C151.065,9.147 151.008,9.376 151.1,9.617 C151.159,9.778 151.357,9.902 151.512,9.902 C151.57,9.902 151.622,9.884 151.659,9.846 C151.791,9.706 151.832,9.486 151.967,9.187 C151.717,9.139 151.539,9.069 151.397,9.069 M129.994,3.48 L129.994,3.48 L129.932,2.66 L129.917,2.485 L129.917,2.483 L129.915,2.475 L129.915,2.466 L129.881,2.225 L129.88,2.224 L129.304,2.331 L129.303,2.329 L129.876,2.203 L129.303,2.315 L129.305,2.143 L129.303,2.144 L129.163,2.143 L129.113,2.145 L129.109,2.354 L128.624,2.448 L129.107,2.365 L129.108,2.366 L128.627,2.455 C128.64,2.533 128.646,2.632 128.652,2.735 L128.659,2.839 L128.661,2.841 L128.662,2.845 L129.097,2.815 L129.079,3.46 L129.091,3.46 L129.208,3.462 L129.186,2.811 L129.226,3.463 L129.994,3.48" id="Fill-4" fill="#4D9F16"></path>
                <path d="M115.921,184.173 C110.516,184.173 105.169,183.665 99.948,182.683 C99.941,182.645 99.932,182.607 99.922,182.568 L99.854,182.323 L99.646,182.185 L99.558,182.115 C99.474,182.044 99.367,181.954 99.231,181.887 L99.226,181.884 L99.224,181.885 L99.22,181.882 L99.218,181.881 L99.216,181.881 L99.211,181.878 L99.208,181.876 L99.205,181.876 L99.203,181.874 L99.199,181.873 L99.198,181.873 L99.193,181.869 L99.191,181.87 L98.998,181.808 L98.997,181.807 L98.99,181.806 L98.988,181.806 L98.97,181.802 L98.962,181.802 L98.954,181.8 L98.954,181.799 L98.949,181.799 L98.946,181.797 L98.938,181.796 L98.933,181.797 L98.929,181.796 L98.92,181.796 L98.918,181.794 L98.913,181.795 L98.911,181.793 L98.895,181.794 L98.85,181.791 L98.843,181.792 L98.833,181.792 L98.848,182.469 C97.873,182.273 96.904,182.06 95.939,181.831 L96.065,181.593 L95.437,181.525 L95.052,180.823 L95.042,180.84 L94.969,180.722 L94.024,181.354 C73.59,176.01 55.47,163.319 43.538,145.42 L46.104,144.682 C61.757,167.671 87.994,181.625 115.918,181.625 C123.661,181.625 131.535,180.552 139.348,178.301 C142.43,177.413 145.421,176.365 148.318,175.169 C148.416,175.186 148.524,175.206 148.643,175.234 C148.635,175.168 148.631,175.102 148.628,175.04 C171.29,165.572 188.031,146.995 195.743,124.931 C196.024,125.095 196.328,125.225 196.628,125.293 C196.666,125.302 196.705,125.306 196.745,125.306 C197.162,125.306 197.644,124.857 197.723,124.46 C197.832,123.907 197.785,123.349 197.295,122.936 C197.054,122.737 196.79,122.638 196.511,122.63 C198.794,115.442 200.128,107.91 200.409,100.225 L202.983,99.482 C202.221,127.755 187.612,154.095 164.018,169.707 C164.107,169.227 164.176,168.736 164.225,168.241 L162.948,168.089 C162.885,168.757 162.776,169.415 162.633,170.045 L163.253,170.207 C163.141,170.28 163.029,170.352 162.917,170.423 C162.902,170.42 162.887,170.416 162.872,170.414 L162.84,170.472 C155.947,174.873 148.312,178.37 140.053,180.749 C132.005,183.068 123.897,184.173 115.921,184.173 M107.129,181.379 C106.896,181.581 106.719,181.814 106.604,182.076 L106.604,182.082 L106.546,182.227 L107.757,182.678 C107.791,182.575 107.857,182.485 107.961,182.395 L107.548,181.886 L107.548,181.885 L107.969,182.389 L107.555,181.88 L107.141,181.368 L107.129,181.379 L107.548,181.885 L107.548,181.886 L107.129,181.379 M91.713,179.275 L91.705,179.388 C91.7,179.52 91.691,179.669 91.704,179.832 L91.706,179.873 L92.979,179.771 L92.977,179.672 L92.985,179.484 L92.992,179.357 L91.714,179.273 L91.713,179.276 L91.713,179.275 M187.409,143.594 L187.156,143.652 L187.25,143.895 L187.502,143.84 L187.409,143.594 M194.877,131.194 C194.486,131.194 194.26,131.339 194.027,131.67 C194.195,131.746 194.346,131.787 194.5,131.787 C194.802,131.787 195.112,131.631 195.562,131.287 C195.284,131.226 195.063,131.194 194.877,131.194" id="Fill-5" fill="#4D9F16"></path>
                <path d="M29.261,89.196 C30.719,73.307 36.538,58.226 45.829,45.566 L46.033,45.795 L46.037,45.792 C46.216,45.621 46.383,45.437 46.537,45.245 C46.775,44.944 46.981,44.616 47.148,44.269 L47.233,44.082 L47.019,43.981 C57.943,29.783 73.329,18.819 91.86,13.48 C94.721,12.656 97.59,11.985 100.458,11.462 C101.455,12.071 102.217,12.823 102.42,13.461 C102.448,13.543 102.47,13.622 102.486,13.699 C99.178,14.237 95.868,14.978 92.566,15.929 C70.822,22.194 53.539,36.431 42.977,54.552 C42.938,54.475 42.894,54.406 42.841,54.344 C42.658,54.138 42.432,54.037 42.204,54.037 C41.962,54.037 41.717,54.15 41.519,54.369 C41.111,54.809 41.207,55.339 41.714,55.632 C41.868,55.72 42.048,55.765 42.265,55.797 C37.494,64.308 34.189,73.637 32.577,83.375 C32.134,83.428 31.752,83.588 31.505,83.863 C30.957,84.476 31.249,86.77 31.963,87.444 C31.975,87.456 31.988,87.467 32.001,87.479 C31.964,87.797 31.929,88.117 31.896,88.436 L29.261,89.196 M33.073,75.83 L32.148,76.725 L32.537,77.15 L33.002,76.702 L33.463,76.258 L33.463,76.256 L33.073,75.83 M182.514,45.041 C179.556,41.263 176.297,37.766 172.782,34.578 C173.025,34.413 173.131,34.04 173,33.78 C172.891,33.572 172.638,33.447 172.378,33.447 C172.272,33.447 172.164,33.468 172.065,33.513 C171.959,33.563 171.877,33.634 171.82,33.719 C165.973,28.575 159.452,24.271 152.459,20.917 C152.618,20.135 152.622,19.33 152.383,18.856 C151.907,17.906 150.614,17.306 149.366,17.306 C148.894,17.306 148.429,17.392 148.017,17.577 C147.45,17.832 147.043,18.117 146.79,18.448 C137.105,14.644 126.676,12.604 115.999,12.604 C111.944,12.604 107.849,12.899 103.75,13.503 C103.723,13.355 103.684,13.206 103.634,13.058 C103.416,12.373 102.9,11.724 102.241,11.156 C106.846,10.416 111.442,10.056 115.996,10.056 C121.031,10.056 126.011,10.496 130.89,11.35 C130.782,12.01 130.64,12.477 130.776,12.864 C130.939,13.322 131.318,13.573 131.769,13.573 C131.946,13.573 132.135,13.534 132.326,13.454 C132.967,13.187 133.281,12.285 132.788,11.779 C132.755,11.745 132.719,11.713 132.681,11.682 C153.433,15.765 172.209,27.341 185.15,44.282 L182.514,45.041 M153.986,18.962 C153.966,19.114 153.9,19.277 153.945,19.408 C153.972,19.491 154.177,19.52 154.391,19.611 C154.409,19.383 154.484,19.194 154.417,19.094 C154.35,19 154.136,19 153.986,18.962 M121.564,10.747 L121.531,11.011 C121.586,11.012 121.642,11.016 121.698,11.016 C121.736,11.016 121.775,11.014 121.812,11.007 L121.829,10.865 L121.564,10.747" id="Fill-6" fill="#4D9F16"></path>
                <path d="M135.8,166.124 L130.48,159.659 L125.271,160.65 C125.024,160.413 124.65,160.296 124.266,160.296 C123.813,160.296 123.345,160.458 123.048,160.775 C122.958,160.871 122.891,160.985 122.844,161.111 L122.257,161.223 L126.764,154.165 L122.735,146.826 L130.838,148.93 L136.573,142.832 L137.076,151.188 L138.689,151.948 C138.675,152 138.663,152.051 138.655,152.102 L139.051,152.187 L138.912,152.32 L139.051,152.187 L139.317,152.245 L144.648,154.759 L136.855,157.819 L135.8,166.124 M135.951,158.398 L135.604,158.929 L135.702,159.002 L136.438,157.938 L136.207,157.766 L135.467,158.826 L135.591,158.919 L135.951,158.398 M133.51,147.002 C133.481,147.275 133.427,147.448 133.465,147.602 L133.786,147.753 C133.909,147.65 133.979,147.486 134.073,147.346 C133.919,147.25 133.764,147.156 133.51,147.002" id="Fill-27" fill="#4D9F16"></path>
                <path d="M112.214,166.652 L108.34,161.945 L102.35,163.083 L105.632,157.942 L102.699,152.597 L108.6,154.13 L112.777,149.688 L113.144,155.775 L118.657,158.376 L117.852,158.692 C117.849,158.68 117.845,158.669 117.842,158.657 C117.654,158.067 117.19,157.658 116.568,157.479 C116.195,157.267 115.698,157.085 115.093,156.776 C115.063,157.043 115.024,157.275 114.988,157.48 C114.132,157.712 113.77,158.367 114.127,159.24 C114.232,159.495 114.398,159.729 114.589,159.973 L112.983,160.603 L112.214,166.652" id="Fill-28" fill="#4D9F16"></path>
                <path d="M156.748,153.821 L152.874,149.114 L146.885,150.251 L150.168,145.111 L147.233,139.767 L150.966,140.736 C150.974,140.771 150.983,140.804 150.995,140.837 C151.157,141.295 151.536,141.548 151.988,141.548 C152.165,141.548 152.353,141.509 152.544,141.429 C152.66,141.38 152.765,141.311 152.857,141.227 L153.134,141.299 L157.311,136.858 L157.678,142.945 L163.191,145.545 L157.517,147.773 L156.748,153.821 M152.92,145.21 C152.859,145.21 152.807,145.221 152.776,145.25 C152.703,145.314 152.764,145.517 152.765,145.749 C152.98,145.653 153.134,145.622 153.229,145.529 L153.196,145.253 C153.113,145.232 153.007,145.21 152.92,145.21" id="Fill-29" fill="#4D9F16"></path>
                <path d="M97.702,57.264 L97.199,48.911 L92.423,46.658 L92.485,46.64 L92.363,46.63 L89.627,45.34 L97.421,42.277 L98.473,33.978 L103.793,40.442 L112.018,38.871 L107.508,45.932 L109.05,48.744 C109.047,48.744 109.044,48.744 109.041,48.744 C109.001,48.744 108.961,48.745 108.921,48.747 C108.754,48.76 108.504,48.818 108.46,48.928 C108.29,49.35 108.165,49.797 108.078,50.248 C108.057,50.37 108.221,50.583 108.352,50.68 C108.602,50.857 108.868,50.938 109.143,50.938 C109.315,50.938 109.49,50.906 109.668,50.847 C109.818,50.761 109.938,50.656 110.034,50.537 L111.534,53.271 L104.869,51.541 C104.943,50.807 105.1,50.373 104.964,50.048 C104.772,49.6 104.391,49.319 103.975,49.319 C103.805,49.319 103.629,49.365 103.458,49.467 C103.2,49.624 103.021,50.382 103.186,50.599 C103.431,50.922 103.86,51.114 104.431,51.428 L103.433,51.168 L97.702,57.264 M97.828,54.063 L97.828,54.063 C97.817,53.908 97.844,53.791 97.797,53.752 C97.738,53.697 97.625,53.701 97.532,53.684 L97.511,53.931 C97.55,53.991 97.669,54 97.828,54.063 M102.054,49.909 C102.003,50.05 101.976,50.139 101.946,50.227 C102.077,50.273 102.211,50.331 102.348,50.352 L102.43,50.114 C102.324,50.03 102.187,49.976 102.054,49.909 M99.688,48.418 L99.688,48.418 C99.477,48.151 99.383,48.033 99.269,48.033 C99.178,48.033 99.074,48.109 98.887,48.245 C99.141,48.302 99.346,48.345 99.688,48.418 M94.695,45.691 L94.616,45.916 C94.704,45.953 94.792,45.981 94.909,46.029 C94.934,45.92 94.978,45.821 94.957,45.804 L94.695,45.691 M100.822,42.704 C100.739,42.704 100.656,42.724 100.587,42.766 C100.362,42.902 100.29,43.135 100.457,43.334 C100.579,43.48 100.82,43.53 101.127,43.677 C101.18,43.357 101.271,43.153 101.228,42.966 C101.191,42.801 101.006,42.704 100.822,42.704 M100.188,38.765 C99.997,38.765 99.798,38.806 99.6,38.891 C98.94,39.171 98.585,39.972 98.866,40.543 C99.093,41.005 99.819,41.37 100.372,41.37 C100.506,41.37 100.629,41.348 100.733,41.302 C101.429,40.992 101.688,40.164 101.316,39.466 C101.075,39.013 100.656,38.765 100.188,38.765" id="Fill-30" fill="#4D9F16"></path>
                <path d="M121.494,50.41 L121.125,44.32 L115.616,41.718 L121.291,39.497 L122.063,33.444 L125.934,38.15 L127.599,37.834 C127.616,37.899 127.638,37.952 127.677,37.974 C127.707,37.99 127.743,37.997 127.783,37.997 C127.892,37.997 128.036,37.949 128.204,37.931 C128.175,37.864 128.153,37.796 128.132,37.733 L131.919,37.013 L131.707,37.346 L131.242,37.481 L131.586,37.535 L128.644,42.155 L131.575,47.497 L128.392,46.673 C128.384,46.599 128.369,46.55 128.339,46.536 C128.203,46.479 128.043,46.451 127.887,46.451 C127.799,46.451 127.713,46.46 127.633,46.476 L125.671,45.968 L121.494,50.41 M125.677,43.94 L125.745,44.05 L125.881,44.27 L126.397,43.891 L126.914,43.511 L126.911,43.51 L126.849,43.402 C126.784,43.29 126.705,43.146 126.581,43.023 L126.581,43.021 L126.577,43.02 L126.572,43.015 L126.568,43.012 L126.564,43.008 L126.561,43.004 L126.561,43.002 L126.556,42.999 L126.555,42.997 L126.552,42.996 L126.548,42.992 L126.547,42.991 L126.544,42.987 L126.539,42.985 L126.539,42.984 L126.536,42.981 L126.529,42.977 L126.529,42.975 L126.527,42.973 L126.522,42.971 L126.52,42.968 L126.52,42.965 L126.516,42.962 L126.516,42.959 L126.511,42.959 L126.508,42.957 L126.503,42.952 L126.5,42.951 L126.5,42.948 L126.496,42.949 L126.492,42.944 L126.492,42.941 L126.488,42.938 L126.484,42.938 L126.48,42.934 L126.479,42.932 L126.476,42.93 L126.471,42.928 L126.469,42.927 L126.465,42.924 L126.462,42.92 L126.461,42.919 L126.458,42.915 L126.453,42.915 L126.45,42.911 L126.447,42.911 L126.442,42.907 L126.442,42.906 L126.439,42.903 L126.434,42.901 L126.432,42.9 L126.427,42.898 L126.424,42.895 L126.42,42.893 L126.416,42.892 L126.414,42.888 L126.413,42.884 L126.406,42.883 L126.405,42.882 L126.401,42.879 L126.398,42.879 L126.392,42.874 L126.212,42.796 L125.872,44.061 C125.743,44.021 125.682,43.945 125.677,43.94 M123.2,41.667 L123.2,42.791 L123.173,42.806 L123.201,42.898 L123.199,42.986 L123.224,42.986 L123.227,42.987 L123.36,43.439 L123.584,44.062 L123.614,44.05 L123.8,43.969 L123.801,43.969 L123.809,43.965 L123.814,43.96 L123.821,43.956 C124.141,43.778 124.371,43.47 124.483,43.071 L124.519,42.945 L124.503,42.816 C124.458,42.394 124.228,41.688 123.2,41.667 M121.348,40.717 L121.346,40.719 L121.295,40.8 C121.237,40.892 121.162,41.008 121.115,41.151 L122.318,41.622 L122.361,41.549 L122.37,41.539 L122.489,41.335 L122.49,41.333 L121.348,40.717 M122.019,40.152 C121.944,40.152 121.867,40.178 121.799,40.233 C121.685,40.324 121.593,40.611 121.658,40.7 C121.755,40.842 122,40.889 122.308,41.037 C122.339,40.727 122.418,40.531 122.357,40.393 C122.292,40.24 122.158,40.152 122.019,40.152" id="Fill-31" fill="#4D9F16"></path>
                <path d="M76.962,63.24 L76.594,57.15 L71.085,54.548 L76.759,52.327 L77.522,46.277 L81.401,50.98 L87.389,49.843 L84.103,54.987 L87.035,60.329 L81.14,58.799 L76.962,63.24 M79.311,53.506 C79.493,54.106 79.505,54.52 79.722,54.732 C79.803,54.811 80.014,54.849 80.207,54.849 C80.384,54.849 80.545,54.817 80.577,54.759 C80.715,54.492 80.758,53.997 80.588,53.789 C80.422,53.589 79.944,53.629 79.311,53.506 M78.06,52.709 C78.05,52.709 78.043,52.711 78.038,52.716 C77.917,52.837 77.857,53.019 77.773,53.176 C77.868,53.226 77.995,53.332 78.062,53.332 C78.071,53.332 78.079,53.33 78.085,53.326 C78.232,53.249 78.342,53.105 78.548,52.901 C78.314,52.814 78.128,52.709 78.06,52.709" id="Fill-32" fill="#4D9F16"></path>
                <polyline id="Fill-33" fill="#1A252E" points="135.963 158.382 136.313 157.877 136.054 158.266 135.963 158.382"></polyline>
                <polyline id="Fill-34" fill="#1A252E" points="203.862 130.03 203.86 130.024 204.289 129.845 203.862 130.03"></polyline>
                <polyline id="Fill-35" fill="#1A252E" points="107.934 91.446 107.746 90.811 107.75 90.81 107.934 91.446"></polyline>
                <path d="M107.894,91.458 L107.558,90.18 L107.747,90.811 L107.75,90.81 L107.568,90.179 L107.611,90.159 L108.237,90.273 L108.869,90.392 C108.784,90.915 108.442,91.3 107.934,91.446 L107.894,91.458 M107.75,90.81 L107.746,90.811 L107.934,91.446 L107.75,90.81 M108.237,90.273 L108.237,90.273 L108.239,90.271 L108.237,90.273" id="Fill-36" fill="#FBFAF4"></path>
                <path d="M68.822,111.634 L67.625,111.144 L67.675,111.026 L67.735,110.899 L67.786,110.793 L68.196,110.918 L68.407,110.973 L69.028,111.136 L69.018,111.172 C68.982,111.311 68.923,111.43 68.874,111.526 L68.821,111.633 L68.822,111.634" id="Fill-37" fill="#FBFAF4"></path>
                <path d="M161.331,64.909 L160.773,64.578 L160.215,64.246 L160.221,64.235 L160.291,64.115 L160.298,64.103 L160.354,64.005 L160.355,64.004 L161.51,64.599 L161.506,64.602 L161.508,64.602 L161.382,64.825 L161.333,64.908 L161.331,64.909 M160.773,64.58 L160.773,64.578 L160.773,64.58" id="Fill-38" fill="#FBFAF4"></path>
                <path d="M129.994,3.48 L129.226,3.463 L129.186,2.811 L129.208,3.462 L129.091,3.46 L129.079,3.46 L129.097,2.815 L128.662,2.845 L128.661,2.841 L128.659,2.839 L128.652,2.735 C128.646,2.632 128.64,2.533 128.627,2.455 L129.108,2.366 L129.107,2.365 L128.624,2.448 L129.109,2.354 L129.113,2.145 L129.163,2.143 L129.303,2.144 L129.305,2.143 L129.303,2.315 L129.876,2.203 L129.303,2.329 L129.304,2.331 L129.88,2.224 L129.881,2.225 L129.915,2.466 L129.915,2.475 L129.917,2.483 L129.917,2.485 L129.932,2.66 L129.994,3.48" id="Fill-39" fill="#FBFAF4"></path>
                <path d="M46.033,45.795 L45.829,45.566 C46.22,45.033 46.616,44.505 47.019,43.981 L47.233,44.082 L47.148,44.269 C46.981,44.616 46.775,44.944 46.537,45.245 C46.383,45.437 46.216,45.621 46.037,45.792 L46.033,45.795" id="Fill-40" fill="#FBFAF4"></path>
                <path d="M122.318,41.622 L121.115,41.151 C121.162,41.008 121.237,40.892 121.295,40.8 L121.346,40.719 L121.348,40.717 L122.49,41.333 L122.489,41.335 L122.37,41.539 L122.361,41.549 L122.318,41.622" id="Fill-41" fill="#FBFAF4"></path>
                <path d="M125.881,44.27 L125.745,44.05 L125.677,43.94 C125.682,43.945 125.743,44.021 125.872,44.061 L126.212,42.796 L126.392,42.874 L126.398,42.879 L126.401,42.879 L126.405,42.882 L126.406,42.883 L126.413,42.884 L126.414,42.888 L126.416,42.892 L126.42,42.893 L126.424,42.895 L126.427,42.898 L126.432,42.9 L126.434,42.901 L126.439,42.903 L126.442,42.906 L126.442,42.907 L126.447,42.911 L126.45,42.911 L126.453,42.915 L126.458,42.915 L126.461,42.919 L126.462,42.92 L126.465,42.924 L126.469,42.927 L126.471,42.928 L126.476,42.93 L126.479,42.932 L126.48,42.934 L126.484,42.938 L126.488,42.938 L126.492,42.941 L126.492,42.944 L126.496,42.949 L126.5,42.948 L126.5,42.951 L126.503,42.952 L126.508,42.957 L126.511,42.959 L126.516,42.959 L126.516,42.962 L126.52,42.965 L126.52,42.968 L126.522,42.971 L126.527,42.973 L126.529,42.975 L126.529,42.977 L126.536,42.981 L126.539,42.984 L126.539,42.985 L126.544,42.987 L126.547,42.991 L126.548,42.992 L126.552,42.996 L126.555,42.997 L126.556,42.999 L126.561,43.002 L126.561,43.004 L126.564,43.008 L126.568,43.012 L126.572,43.015 L126.577,43.02 L126.581,43.021 L126.581,43.023 C126.705,43.146 126.784,43.29 126.849,43.402 L126.911,43.51 L126.914,43.511 L126.397,43.891 L125.881,44.27" id="Fill-42" fill="#FBFAF4"></path>
                <path d="M135.702,159.002 L135.604,158.929 L135.951,158.398 L135.591,158.919 L135.467,158.826 L136.207,157.766 L136.438,157.938 L135.702,159.002 M136.313,157.877 L135.963,158.382 L136.054,158.266 L136.313,157.877" id="Fill-43" fill="#FBFAF4"></path>
                <path d="M91.706,179.873 L91.706,179.873 L91.704,179.832 C91.691,179.669 91.7,179.52 91.705,179.388 L91.713,179.275 L91.713,179.276 L91.714,179.273 L92.992,179.357 L92.985,179.484 L92.977,179.672 L92.979,179.771 L91.706,179.873" id="Fill-44" fill="#FBFAF4"></path>
                <polyline id="Fill-45" fill="#FBFAF4" points="104.819 109.639 104.818 109.637 104.804 109.598 104.769 109.527 104.759 109.513 104.898 109.38 105.051 109.564 104.819 109.639"></polyline>
                <path d="M46.281,96.557 L45.134,96.539 C45.133,95.964 45.378,95.534 45.804,95.36 L46.048,95.973 L46.281,96.557" id="Fill-46" fill="#FBFAF4"></path>
                <path d="M21.637,82.336 L20.874,81.817 C20.952,81.334 21.034,80.852 21.119,80.37 L21.227,80.201 L21.27,80.234 C21.378,80.313 21.468,80.407 21.549,80.518 C21.694,80.717 21.799,80.967 21.858,81.264 L21.871,81.383 C21.881,81.757 21.799,82.076 21.637,82.336 M21.128,80.323 C21.128,80.321 21.128,80.319 21.129,80.317 L21.206,80.188 L21.128,80.323" id="Fill-47" fill="#FBFAF4"></path>
                <polyline id="Fill-48" fill="#FBFAF4" points="123.086 93.313 122.513 93.007 122.512 93.009 122.513 93.007 121.938 92.701 121.946 92.69 121.987 92.613 122.004 92.581 122.05 92.49 122.052 92.489 123.229 93.028 123.226 93.032 123.228 93.033 123.161 93.174 123.122 93.244 123.086 93.313"></polyline>
                <path d="M111.342,126.018 L110.383,125.132 L110.437,125.069 L110.529,124.98 L110.558,124.95 L110.638,124.877 L110.645,124.869 L111.705,125.621 L111.706,125.624 L111.658,125.692 L111.657,125.692 L111.656,125.693 L111.654,125.697 C111.584,125.791 111.503,125.865 111.431,125.935 L111.346,126.017 L111.346,126.016 L111.342,126.018" id="Fill-49" fill="#FBFAF4"></path>
                <path d="M117.764,130.643 L117.599,130.004 L117.521,129.693 L117.511,129.702 L117.51,129.702 L117.343,129.489 L117.271,129.391 L118.116,128.417 C118.222,128.515 118.304,128.628 118.37,128.718 L118.442,128.816 L118.588,128.976 L118.612,129.191 C118.643,129.454 118.619,129.698 118.549,129.909 C118.424,130.266 118.164,130.53 117.802,130.634 L117.764,130.643" id="Fill-50" fill="#FBFAF4"></path>
                <path d="M135.47,77.861 L135.302,77.223 L135.299,77.224 L135.302,77.223 L135.128,76.583 L135.313,77.22 L135.313,77.219 L135.135,76.582 L135.144,76.464 C135.089,76.261 135.001,76.19 134.937,76.16 L134.888,76.143 L135.255,74.886 L135.269,74.891 C135.85,75.086 136.256,75.566 136.405,76.244 L136.421,76.351 C136.438,76.651 136.394,76.924 136.291,77.154 L136.29,77.155 L136.289,77.159 C136.139,77.495 135.872,77.742 135.511,77.85 L135.313,77.219 L135.313,77.22 L135.497,77.854 L135.47,77.861" id="Fill-51" fill="#FBFAF4"></path>
                <path d="M180.815,162.028 L180.805,162.028 C180.809,162.024 180.812,162.021 180.815,162.017 L180.815,162.028" id="Fill-52" fill="#FBFAF4"></path>
                <polyline id="Fill-53" fill="#FBFAF4" points="131.586 37.535 131.242 37.481 131.707 37.346 131.586 37.535"></polyline>
                <path d="M154.878,113.942 L154.86,113.937 L154.733,113.656 C154.632,113.429 154.61,113.232 154.623,113.077 L154.625,113.066 L154.878,113.942" id="Fill-54" fill="#FBFAF4"></path>
                <path d="M99.948,182.683 C99.579,182.614 99.215,182.543 98.848,182.469 L98.833,181.792 L98.843,181.792 L98.85,181.791 L98.895,181.794 L98.911,181.793 L98.913,181.795 L98.918,181.794 L98.92,181.796 L98.929,181.796 L98.933,181.797 L98.938,181.796 L98.946,181.797 L98.949,181.799 L98.954,181.799 L98.954,181.8 L98.962,181.802 L98.97,181.802 L98.988,181.806 L98.99,181.806 L98.997,181.807 L98.998,181.808 L99.191,181.87 L99.193,181.869 L99.198,181.873 L99.199,181.873 L99.203,181.874 L99.205,181.876 L99.208,181.876 L99.211,181.878 L99.216,181.881 L99.218,181.881 L99.22,181.882 L99.224,181.885 L99.226,181.884 L99.231,181.887 C99.367,181.954 99.474,182.044 99.558,182.115 L99.646,182.185 L99.854,182.323 L99.922,182.568 C99.932,182.607 99.941,182.645 99.948,182.683" id="Fill-55" fill="#FBFAF4"></path>
                <path d="M84.161,105.841 L84.106,105.651 L85.211,105.385 L85.227,105.449 C85.247,105.545 85.264,105.636 85.272,105.724 L84.161,105.841" id="Fill-56" fill="#FBFAF4"></path>
                <polyline id="Fill-57" fill="#FBFAF4" points="94.716 122.509 94.56 122.386 94.508 122.34 94.488 122.326 94.415 122.266 94.592 121.938 94.808 121.458 94.816 121.456 94.715 121.689 94.832 121.451 95.296 121.318 95.318 121.336 95.411 121.414 95.065 121.961 94.716 122.509"></polyline>
                <path d="M115.78,98.829 L115.542,98.69 L115.508,98.689 L115.506,98.685 L115.491,98.689 L115.49,98.687 L115.508,98.684 L115.508,98.667 L114.659,98.169 L114.667,98.158 L114.669,98.15 L114.669,98.148 L114.757,98.014 L114.76,98.012 L114.761,98.011 L114.91,97.832 L114.989,97.744 L115.181,97.472 L115.508,97.48 C115.8,97.485 116.056,97.565 116.261,97.706 L116.266,97.709 L116.267,97.71 C116.502,97.871 116.666,98.111 116.736,98.406 L116.737,98.408 L116.738,98.418 L116.753,98.488 L116.77,98.667 L116.131,98.678 L115.906,98.681 L115.857,98.738 L115.78,98.829" id="Fill-58" fill="#FBFAF4"></path>
                <path d="M203.708,130.104 L203.707,130.102 L203.686,130.02 L202.786,129.26 C202.9,129.114 203.047,128.989 203.222,128.887 L203.297,128.843 L203.384,128.821 C203.501,128.792 203.616,128.778 203.728,128.778 C204.139,128.778 204.506,128.97 204.747,129.312 L204.755,129.323 L204.756,129.324 L204.763,129.336 L204.765,129.337 L204.771,129.348 L204.771,129.349 L204.778,129.359 L204.778,129.36 L204.785,129.37 L204.787,129.374 L204.793,129.382 L204.795,129.387 L204.798,129.394 L204.8,129.398 L204.807,129.408 L204.81,129.411 L204.815,129.421 L204.817,129.424 L204.821,129.432 L204.822,129.437 L204.832,129.449 L204.832,129.45 L204.851,129.487 L204.853,129.489 L204.856,129.499 L204.859,129.503 L204.863,129.513 L204.873,129.53 L204.895,129.583 L204.289,129.845 L203.86,130.024 L203.862,130.03 L203.867,130.038 L203.783,130.101 L203.754,130.077 L203.732,130.084 L203.759,130.096 L203.708,130.104 M203.862,130.03 L203.862,130.03 L204.289,129.845 L204.309,129.837 L203.862,130.03" id="Fill-59" fill="#FBFAF4"></path>
                <polyline id="Fill-60" fill="#FBFAF4" points="181.352 78.64 181.307 78.371 180.467 78.09 181.535 77.305 181.884 77.077 182.252 77.309 182.484 77.388 182.491 77.474 183.016 77.83 182.577 78.168 182.63 78.531 181.352 78.64"></polyline>
                <path d="M138.912,152.32 L139.051,152.187 L138.912,152.32 M139.317,152.245 L139.051,152.187 L138.655,152.102 C138.663,152.051 138.675,152 138.689,151.948 L139.317,152.245" id="Fill-61" fill="#FBFAF4"></path>
                <polyline id="Fill-62" fill="#FBFAF4" points="181.844 89.085 181.835 89.054 181.852 89.068 181.852 89.072 181.844 89.085"></polyline>
                <polyline id="Fill-63" fill="#FBFAF4" points="182.74 85.464 182.739 85.464 182.694 85.38 182.633 85.257 182.605 85.203 182.581 85.156 182.829 84.963 183.079 84.751 183.567 84.334 183.596 84.373 183.692 84.524 183.693 84.526 183.696 84.528 183.776 84.686 183.825 84.786 183.827 84.789 182.74 85.464"></polyline>
                <path d="M102.486,13.699 C102.47,13.622 102.448,13.543 102.42,13.461 C102.217,12.823 101.455,12.071 100.458,11.462 C101.054,11.353 101.644,11.252 102.241,11.156 C102.9,11.724 103.416,12.373 103.634,13.058 C103.684,13.206 103.723,13.355 103.75,13.503 C103.328,13.565 102.907,13.63 102.486,13.699" id="Fill-64" fill="#FBFAF4"></path>
                <path d="M123.584,44.062 L123.36,43.439 L123.227,42.987 L123.224,42.986 L123.199,42.986 L123.201,42.898 L123.173,42.806 L123.2,42.791 L123.2,41.667 C124.228,41.688 124.458,42.394 124.503,42.816 L124.519,42.945 L124.483,43.071 C124.371,43.47 124.141,43.778 123.821,43.956 L123.814,43.96 L123.809,43.965 L123.801,43.969 L123.8,43.969 L123.614,44.05 L123.584,44.062" id="Fill-65" fill="#FBFAF4"></path>
                <path d="M65.074,124.037 L65.067,124.023 L65.062,124.025 L65.062,124.024 L65.067,124.023 L64.767,123.434 C64.944,123.342 65.13,123.298 65.312,123.298 C65.646,123.298 65.966,123.445 66.192,123.715 L65.074,124.037" id="Fill-66" fill="#FBFAF4"></path>
                <polyline id="Fill-67" fill="#FBFAF4" points="79.152 118.91 79.089 118.573 79.152 118.91"></polyline>
                <path d="M66.714,175.715 L66.688,175.704 C66.474,175.616 66.285,175.481 66.133,175.297 L66.613,174.872 L66.892,174.627 C66.948,174.662 67.003,174.697 67.059,174.732 L66.714,175.715" id="Fill-68" fill="#FBFAF4"></path>
                <path d="M48.392,106.68 L48.964,105.514 C49.419,105.75 49.628,106.223 49.747,106.558 L49.146,106.773 L48.545,106.989 C48.455,106.74 48.398,106.685 48.392,106.68 Z" id="Fill-69" fill="#FBFAF4"></path>
                <path d="M83.625,99.738 L82.801,98.714 L82.779,98.737 L82.755,98.79 L82.755,98.788 L82.755,98.791 L82.736,98.693 L83.346,98.495 L83.952,98.3 C84.137,98.873 84.013,99.411 83.625,99.738" id="Fill-70" fill="#FBFAF4"></path>
                <path d="M79.191,118.9 L79.089,118.573 L79.085,118.547 L79.077,118.522 L79.072,118.535 L79.071,118.532 L79.017,118.624 L78.883,118.864 L79.064,118.517 L79.063,118.513 L78.679,117.688 L78.855,117.622 L78.91,117.61 C78.959,117.602 79.007,117.597 79.056,117.597 C79.171,117.597 79.286,117.621 79.397,117.67 L79.404,117.674 L79.489,117.716 L79.542,117.751 L79.092,118.499 L79.236,118.886 L79.133,118.666 L79.15,118.732 L79.191,118.9 M79.183,118.293 L79.085,118.478 L79.183,118.293" id="Fill-71" fill="#FBFAF4"></path>
                <path d="M107.757,182.678 L106.546,182.227 L106.604,182.082 L106.604,182.076 C106.719,181.814 106.896,181.581 107.129,181.379 L107.548,181.886 L107.961,182.395 C107.857,182.485 107.791,182.575 107.757,182.678 M107.969,182.389 L107.548,181.885 L107.129,181.379 L107.141,181.368 L107.555,181.88 L107.969,182.389 M107.548,181.886 L107.548,181.885 L107.548,181.886" id="Fill-72" fill="#FBFAF4"></path>
                <polyline id="Fill-73" fill="#FBFAF4" points="92.423 46.658 92.363 46.63 92.485 46.64 92.423 46.658"></polyline>
                <polyline id="Fill-74" fill="#FBFAF4" points="32.537 77.15 32.148 76.725 33.073 75.83 33.463 76.256 33.463 76.258 33.002 76.702 32.537 77.15"></polyline>
                <path d="M90.155,116.81 L89.615,116.494 L89.364,116.289 L89.368,115.962 L89.381,115.746 L89.386,115.676 L89.389,115.661 L89.389,115.626 L90.227,115.571 L90.331,115.564 L90.664,115.541 L90.668,115.743 L90.663,115.795 L90.658,115.886 L90.649,116 L90.646,116.669 L90.155,116.81 M90.227,115.571 L90.313,115.408 L90.227,115.571" id="Fill-75" fill="#FBFAF4"></path>
                <path d="M54.731,26.65 C54.152,26.65 53.69,26.304 53.548,25.754 L53.533,25.691 L54.158,25.564 L54.554,25.482 L54.512,25.381 L54.515,25.38 L54.566,25.354 L54.586,25.343 L54.587,25.343 L54.652,25.463 L54.729,25.447 L54.728,25.449 L54.785,25.436 L54.729,25.451 L54.739,25.607 L55.251,26.481 L55.013,26.602 L54.913,26.645 L54.804,26.648 C54.779,26.65 54.755,26.65 54.731,26.65" id="Fill-76" fill="#FBFAF4"></path>
                <path d="M95.939,181.831 C95.299,181.679 94.66,181.52 94.024,181.354 L94.969,180.722 L95.042,180.84 L95.052,180.823 L95.437,181.525 L96.065,181.593 L95.939,181.831" id="Fill-77" fill="#FBFAF4"></path>
                <path d="M88.349,133.063 L87.432,132.897 L87.457,132.706 C87.485,132.455 87.486,132.223 87.461,132.003 C87.671,132.194 87.869,132.407 88.055,132.642 C88.16,132.776 88.258,132.916 88.349,133.063" id="Fill-78" fill="#FBFAF4"></path>
                <path d="M147.683,89.528 L147.292,89.363 C147.27,89.326 147.246,89.287 147.22,89.245 C147.209,89.27 147.198,89.295 147.188,89.319 L146.489,89.025 L146.488,89.035 L146.474,88.923 C146.232,88.571 146.071,88.501 145.963,88.501 C145.931,88.501 145.903,88.508 145.88,88.514 L145.76,88.557 L145.214,87.357 C145.312,87.31 145.415,87.271 145.514,87.245 L145.522,87.242 C145.652,87.206 145.795,87.183 145.948,87.183 C146.139,87.183 146.346,87.22 146.56,87.315 L147.746,88.768 C147.782,88.988 147.777,89.197 147.727,89.388 L147.727,89.39 L147.725,89.393 L147.724,89.399 L147.683,89.528" id="Fill-79" fill="#FBFAF4"></path>
                <path d="M60.092,110.977 L60.047,110.927 L60.046,110.926 L60.043,110.924 L59.993,110.854 L59.976,110.424 L60.395,110.273 L60.998,110.054 L60.544,110.519 L60.092,110.977 M60.548,110.522 L60.544,110.52 L60.544,110.519 L60.548,110.522" id="Fill-80" fill="#FBFAF4"></path>
                <polyline id="Fill-81" fill="#FBFAF4" points="42.63 96.289 42.516 95.893 42.857 95.794 42.63 96.289"></polyline>
                <path d="M163.253,170.207 L162.633,170.045 C162.776,169.415 162.885,168.757 162.948,168.089 L164.225,168.241 C164.176,168.736 164.107,169.227 164.018,169.707 C163.764,169.875 163.508,170.042 163.253,170.207" id="Fill-82" fill="#FBFAF4"></path>
                <path d="M90.287,189.931 C87.969,189.287 85.672,188.556 83.414,187.743 C83.66,187.483 83.905,187.223 84.151,186.964 C84.807,187.274 85.445,187.384 86.074,187.384 C87.41,187.384 88.702,186.885 90.024,186.754 C90.853,186.673 91.68,186.568 92.507,186.482 C93.14,186.417 93.778,186.37 94.411,186.303 C95.203,186.495 95.997,186.677 96.796,186.848 C96.394,187.216 95.915,187.362 95.399,187.362 C95.208,187.362 95.013,187.342 94.814,187.306 C94.547,187.259 94.288,187.237 94.035,187.237 C93.273,187.237 92.567,187.434 91.867,187.737 C90.581,188.291 90.154,188.81 90.287,189.931" id="Fill-83" fill="#FBFAF4"></path>
                <path d="M205.123,63.705 C204.658,63.705 204.435,63.478 204.443,63.054 L205.105,62.863 C205.269,62.944 205.382,63.112 205.431,63.384 C205.448,63.482 205.264,63.704 205.159,63.704 C205.147,63.704 205.135,63.705 205.123,63.705" id="Fill-84" fill="#FBFAF4"></path>
                <path d="M114.589,159.973 C114.398,159.729 114.232,159.495 114.127,159.24 C113.77,158.367 114.132,157.712 114.988,157.48 C114.907,157.942 114.84,158.269 114.926,158.562 C115.064,159.033 115.558,159.339 116.018,159.339 C116.231,159.339 116.437,159.273 116.596,159.127 C116.909,158.84 117.2,158.032 117.035,157.84 C116.912,157.699 116.756,157.585 116.568,157.479 C117.19,157.658 117.654,158.067 117.842,158.657 C117.845,158.669 117.849,158.68 117.852,158.692 L114.589,159.973" id="Fill-85" fill="#FBFAF4"></path>
                <path d="M122.844,161.111 C122.891,160.985 122.958,160.871 123.048,160.775 C123.345,160.458 123.813,160.296 124.266,160.296 C124.65,160.296 125.024,160.413 125.271,160.65 L122.844,161.111" id="Fill-86" fill="#FBFAF4"></path>
                <path d="M177.182,168.008 C177.222,167.56 177.143,167.141 177.299,167.033 C177.356,166.993 177.441,166.975 177.538,166.975 C177.734,166.975 177.978,167.046 178.133,167.141 C178.253,167.211 178.28,167.732 178.162,167.819 C177.971,167.968 177.626,167.937 177.182,168.008" id="Fill-87" fill="#FBFAF4"></path>
                <path d="M148.643,175.234 C148.524,175.206 148.416,175.186 148.318,175.169 C148.421,175.126 148.525,175.083 148.628,175.04 C148.631,175.102 148.635,175.168 148.643,175.234" id="Fill-88" fill="#FBFAF4"></path>
                <path d="M152.765,145.749 C152.764,145.517 152.703,145.314 152.776,145.25 C152.807,145.221 152.859,145.21 152.92,145.21 C153.007,145.21 153.113,145.232 153.196,145.253 L153.229,145.529 C153.134,145.622 152.98,145.653 152.765,145.749" id="Fill-89" fill="#FBFAF4"></path>
                <polyline id="Fill-90" fill="#FBFAF4" points="187.25 143.895 187.156 143.652 187.409 143.594 187.502 143.84 187.25 143.895"></polyline>
                <path d="M172.62,109.838 L171.605,106.315 C171.731,106.307 171.858,106.303 171.986,106.303 C172.533,106.303 173.094,106.376 173.677,106.536 C175.064,106.915 175.399,107.727 174.46,108.736 C174,109.234 173.276,109.759 172.62,109.838" id="Fill-91" fill="#FBFAF4"></path>
                <path d="M144.57,112.263 C143.84,112.121 143.107,111.638 142.754,110.964 C142.468,110.416 142.492,109.695 142.731,109.096 L144.57,112.263" id="Fill-92" fill="#FBFAF4"></path>
                <path d="M193.493,154.219 C192.768,154.157 192.051,153.759 191.816,153.182 C191.502,152.411 192.058,151.154 192.853,150.842 C192.855,150.841 192.858,150.84 192.861,150.839 C192.873,150.87 192.887,150.901 192.905,150.932 C193.026,151.132 193.252,151.252 193.465,151.252 C193.549,151.252 193.631,151.234 193.703,151.194 C193.829,151.124 193.923,150.991 193.971,150.841 C194.461,151 194.908,151.347 195.122,151.798 C195.135,151.826 195.148,151.854 195.16,151.882 C194.615,152.67 194.061,153.447 193.493,154.219" id="Fill-93" fill="#FBFAF4"></path>
                <path d="M151.988,141.548 C151.536,141.548 151.157,141.295 150.995,140.837 C150.983,140.804 150.974,140.771 150.966,140.736 L152.857,141.227 C152.765,141.311 152.66,141.38 152.544,141.429 C152.353,141.509 152.165,141.548 151.988,141.548" id="Fill-94" fill="#FBFAF4"></path>
                <path d="M116.018,159.339 C115.558,159.339 115.064,159.033 114.926,158.562 C114.84,158.269 114.907,157.942 114.988,157.48 C115.024,157.275 115.063,157.043 115.093,156.776 C115.698,157.085 116.195,157.267 116.568,157.479 C116.756,157.585 116.912,157.699 117.035,157.84 C117.2,158.032 116.909,158.84 116.596,159.127 C116.437,159.273 116.231,159.339 116.018,159.339" id="Fill-95" fill="#FBFAF4"></path>
                <path d="M170.03,176.819 C169.682,176.746 169.422,176.457 169.33,176.051 C169.231,175.603 169.359,175.117 169.412,174.218 C170.207,174.746 170.743,174.945 171.008,175.316 C171.174,175.545 171.247,175.776 171.235,175.988 C170.835,176.268 170.435,176.544 170.03,176.819" id="Fill-96" fill="#FBFAF4"></path>
                <path d="M134.157,124.305 C133.893,124.305 133.496,124.055 133.307,123.82 C133.203,123.691 133.396,123.105 133.57,123.053 C133.624,123.037 133.68,123.031 133.74,123.031 C133.977,123.031 134.269,123.138 134.641,123.224 C134.608,123.512 134.545,123.79 134.452,124.056 C134.388,124.185 134.32,124.274 134.232,124.297 C134.209,124.302 134.184,124.305 134.157,124.305" id="Fill-97" fill="#FBFAF4"></path>
                <path d="M163.473,111.937 C163.346,111.937 163.072,111.841 163.024,111.745 C162.931,111.551 162.988,111.299 162.971,110.832 C163.389,111.077 163.703,111.161 163.768,111.326 C163.831,111.488 163.677,111.768 163.532,111.921 C163.522,111.932 163.501,111.937 163.473,111.937" id="Fill-98" fill="#FBFAF4"></path>
                <path d="M133.786,147.753 L133.465,147.602 C133.427,147.448 133.481,147.275 133.51,147.002 C133.764,147.156 133.919,147.25 134.073,147.346 C133.979,147.486 133.909,147.65 133.786,147.753" id="Fill-99" fill="#FBFAF4"></path>
                <path d="M162.84,170.472 L162.872,170.414 C162.887,170.416 162.902,170.42 162.917,170.423 C162.89,170.44 162.867,170.455 162.84,170.472" id="Fill-100" fill="#FBFAF4"></path>
                <path d="M132.606,115.321 C132.468,115.245 132.328,115.166 132.194,115.089 C132.268,115 132.33,114.86 132.422,114.843 C132.427,114.842 132.433,114.841 132.439,114.841 C132.494,114.841 132.562,114.889 132.63,114.938 L132.683,115.121 C132.657,115.188 132.633,115.255 132.606,115.321" id="Fill-101" fill="#FBFAF4"></path>
                <path d="M208.924,105.882 C208.759,105.882 208.565,105.789 208.407,105.704 C208.028,105.499 207.662,105.079 207.408,104.591 C207.482,103.688 207.543,102.786 207.59,101.878 C207.856,101.43 208.21,101.062 208.805,100.872 C209.094,100.779 209.392,100.734 209.688,100.734 C210.656,100.734 211.599,101.216 212.149,102.06 C212.096,103.1 212.026,104.135 211.939,105.168 C211.796,105.278 211.609,105.344 211.362,105.349 C210.631,105.94 209.769,105.761 208.986,105.877 C208.966,105.881 208.945,105.882 208.924,105.882" id="Fill-102" fill="#FBFAF4"></path>
                <path d="M196.745,125.306 C196.705,125.306 196.666,125.302 196.628,125.293 C196.328,125.225 196.024,125.095 195.743,124.931 C196.01,124.167 196.265,123.402 196.511,122.63 C196.79,122.638 197.054,122.737 197.295,122.936 C197.785,123.349 197.832,123.907 197.723,124.46 C197.644,124.857 197.162,125.306 196.745,125.306" id="Fill-103" fill="#FBFAF4"></path>
                <path d="M210.633,110.002 C210.08,110.002 209.354,109.636 209.126,109.175 C208.845,108.604 209.201,107.802 209.861,107.523 C210.06,107.438 210.259,107.397 210.45,107.397 C210.917,107.397 211.336,107.645 211.577,108.099 C211.598,108.138 211.616,108.176 211.633,108.216 C211.58,108.67 211.525,109.12 211.465,109.573 C211.344,109.724 211.186,109.848 210.995,109.934 C210.891,109.98 210.767,110.002 210.633,110.002" id="Fill-104" fill="#FBFAF4"></path>
                <path d="M193.465,151.252 C193.252,151.252 193.026,151.132 192.905,150.932 C192.887,150.901 192.873,150.87 192.861,150.839 C192.766,150.585 192.867,150.317 193.128,150.16 C193.231,150.101 193.342,150.073 193.451,150.073 C193.649,150.073 193.837,150.167 193.938,150.34 C194.021,150.482 194.025,150.672 193.971,150.841 C193.923,150.991 193.829,151.124 193.703,151.194 C193.631,151.234 193.549,151.252 193.465,151.252" id="Fill-105" fill="#FBFAF4"></path>
                <path d="M194.5,131.787 C194.346,131.787 194.195,131.746 194.027,131.67 C194.26,131.339 194.486,131.194 194.877,131.194 C195.063,131.194 195.284,131.226 195.562,131.287 C195.112,131.631 194.802,131.787 194.5,131.787" id="Fill-106" fill="#FBFAF4"></path>
                <path d="M211.087,112.179 C210.925,112.113 210.797,112.059 210.719,111.965 C210.552,111.766 210.623,111.535 210.849,111.398 C210.918,111.356 211.001,111.336 211.085,111.336 C211.129,111.336 211.173,111.341 211.215,111.352 C211.174,111.627 211.131,111.905 211.087,112.179" id="Fill-107" fill="#FBFAF4"></path>
                <path d="M209.949,117.049 C209.605,116.978 209.402,116.933 209.147,116.877 C209.335,116.741 209.439,116.665 209.53,116.665 C209.644,116.665 209.738,116.783 209.949,117.049" id="Fill-108" fill="#FBFAF4"></path>
                <path d="M208.09,122.696 C207.931,122.633 207.812,122.624 207.772,122.563 L207.794,122.315 L208.058,122.383 C208.104,122.424 208.078,122.539 208.09,122.696" id="Fill-109" fill="#FBFAF4"></path>
                <path d="M105.909,3.222 C105.421,3.222 104.903,3.042 104.583,2.696 C104.238,2.326 104.098,1.909 104.167,1.536 C105.064,1.425 105.965,1.325 106.861,1.239 C107.278,1.742 107.311,2.483 106.897,2.879 C106.659,3.111 106.293,3.222 105.909,3.222" id="Fill-110" fill="#FBFAF4"></path>
                <path d="M80.995,7.607 C80.99,7.534 80.984,7.465 80.979,7.397 C81.384,7.24 81.788,7.086 82.196,6.934 C82.215,7.151 82.204,7.398 82.232,7.604 C82.186,7.604 82.139,7.604 82.092,7.604 C81.788,7.604 81.463,7.606 80.995,7.607" id="Fill-111" fill="#FBFAF4"></path>
                <path d="M80.207,54.849 C80.014,54.849 79.803,54.811 79.722,54.732 C79.505,54.52 79.493,54.106 79.311,53.506 C79.944,53.629 80.422,53.589 80.588,53.789 C80.758,53.997 80.715,54.492 80.577,54.759 C80.545,54.817 80.384,54.849 80.207,54.849" id="Fill-112" fill="#FBFAF4"></path>
                <path d="M127.783,37.997 C127.743,37.997 127.707,37.99 127.677,37.974 C127.638,37.952 127.616,37.899 127.599,37.834 L128.132,37.733 C128.153,37.796 128.175,37.864 128.204,37.931 C128.036,37.949 127.892,37.997 127.783,37.997" id="Fill-113" fill="#FBFAF4"></path>
                <path d="M102.348,50.352 C102.211,50.331 102.077,50.273 101.946,50.227 C101.976,50.139 102.003,50.05 102.054,49.909 C102.187,49.976 102.324,50.03 102.43,50.114 L102.348,50.352" id="Fill-114" fill="#FBFAF4"></path>
                <path d="M27.212,134.369 C27.188,134.278 27.157,134.188 27.148,134.095 L27.278,134.043 L27.464,134.256 L27.212,134.369" id="Fill-115" fill="#FBFAF4"></path>
                <path d="M71.153,105.315 C71.151,105.315 71.149,105.315 71.147,105.314 C71.149,105.315 71.151,105.315 71.153,105.315 M71.154,105.315 C71.17,105.314 71.185,105.312 71.197,105.307 C71.185,105.312 71.17,105.314 71.154,105.315 M71.107,105.31 C71.106,105.31 71.104,105.309 71.103,105.309 C71.104,105.309 71.106,105.31 71.107,105.31 M71.071,105.302 C71.042,105.294 71.011,105.285 70.982,105.277 C71.011,105.285 71.042,105.294 71.071,105.302 M70.954,105.269 C70.95,105.268 70.946,105.267 70.942,105.266 C70.946,105.267 70.95,105.268 70.954,105.269 M70.937,105.265 C70.933,105.264 70.928,105.263 70.924,105.262 C70.928,105.263 70.933,105.264 70.937,105.265" id="Fill-116" fill="#FBFAF4"></path>
                <path d="M32.001,87.479 C31.988,87.467 31.975,87.456 31.963,87.444 C31.249,86.77 30.957,84.476 31.505,83.863 C31.752,83.588 32.134,83.428 32.577,83.375 C32.352,84.735 32.16,86.104 32.001,87.479" id="Fill-117" fill="#FBFAF4"></path>
                <path d="M79.787,126.612 C79.791,126.605 79.796,126.598 79.8,126.591 C80.046,126.182 80.351,125.829 80.715,125.533 C80.802,125.828 80.805,126.158 80.65,126.551 C80.361,126.569 80.074,126.591 79.787,126.612" id="Fill-118" fill="#FBFAF4"></path>
                <path d="M40.932,125.465 C39.951,125.465 39.558,124.928 39.936,123.952 C40.152,123.387 40.593,122.704 41.12,122.509 C41.373,122.417 41.63,122.351 41.89,122.307 C42.519,123.297 43.26,123.93 44.114,124.207 C43.281,124.899 42.353,125.36 41.18,125.455 C41.094,125.462 41.011,125.465 40.932,125.465" id="Fill-119" fill="#FBFAF4"></path>
                <path d="M63.728,114.205 C63.226,114.205 62.682,113.999 62.264,113.604 C61.526,112.905 61.389,111.835 61.953,111.2 C62.227,110.894 62.669,110.743 63.136,110.743 C63.646,110.743 64.184,110.922 64.567,111.275 C65.252,111.906 65.34,113.27 64.73,113.841 C64.468,114.086 64.11,114.205 63.728,114.205" id="Fill-120" fill="#FBFAF4"></path>
                <path d="M42.265,55.797 C42.048,55.765 41.868,55.72 41.714,55.632 C41.207,55.339 41.111,54.809 41.519,54.369 C41.717,54.15 41.962,54.037 42.204,54.037 C42.432,54.037 42.658,54.138 42.841,54.344 C42.894,54.406 42.938,54.475 42.977,54.552 C42.736,54.964 42.499,55.38 42.265,55.797" id="Fill-121" fill="#FBFAF4"></path>
                <path d="M25.713,69.22 C24.956,69.032 24.496,69.028 24.184,68.81 C24.101,68.753 24.03,68.691 23.973,68.625 C24.102,68.21 24.235,67.794 24.369,67.38 C24.436,67.359 24.503,67.348 24.569,67.348 C24.82,67.348 25.061,67.497 25.229,67.757 C25.437,68.081 25.484,68.5 25.713,69.22" id="Fill-122" fill="#FBFAF4"></path>
                <path d="M67.144,99.346 C67.078,99.219 67.008,99.083 66.934,98.941 C66.934,98.68 66.934,98.472 67.038,98.401 C67.095,98.36 67.18,98.343 67.277,98.343 C67.474,98.343 67.718,98.414 67.872,98.51 C67.991,98.58 68.018,99.099 67.901,99.187 C67.743,99.311 67.481,99.31 67.144,99.346" id="Fill-123" fill="#FBFAF4"></path>
                <path d="M49.368,117.107 C48.979,117.035 48.716,117.058 48.62,116.948 C48.525,116.84 48.559,116.574 48.621,116.415 L49.056,116.411 C49.184,116.533 49.217,116.749 49.368,117.107" id="Fill-124" fill="#FBFAF4"></path>
                <path d="M71.153,105.315 L71.153,105.315 C71.151,105.315 71.149,105.315 71.147,105.314 C71.134,105.314 71.121,105.312 71.107,105.31 C71.106,105.31 71.104,105.309 71.103,105.309 C71.093,105.307 71.082,105.305 71.071,105.302 C71.042,105.294 71.011,105.285 70.982,105.277 C70.972,105.274 70.963,105.271 70.954,105.269 C70.95,105.268 70.946,105.267 70.942,105.266 C70.94,105.266 70.939,105.265 70.937,105.265 C70.933,105.264 70.928,105.263 70.924,105.262 C70.925,105.168 70.924,105.074 70.925,104.978 C71.052,105.001 71.177,105.021 71.303,105.041 C71.274,105.134 71.269,105.262 71.205,105.302 C71.203,105.304 71.2,105.305 71.197,105.307 C71.185,105.312 71.17,105.314 71.154,105.315 L71.153,105.315" id="Fill-125" fill="#FBFAF4"></path>
                <path d="M33.69,115.671 C33.48,115.671 33.284,115.613 33.118,115.501 L32.684,113.995 C32.714,113.711 32.755,113.38 32.772,112.984 C33.664,113.477 34.268,113.646 34.598,114.033 C35.058,114.571 34.935,115.205 34.273,115.528 C34.077,115.624 33.878,115.671 33.69,115.671" id="Fill-126" fill="#FBFAF4"></path>
                <path d="M59.944,108.204 C59.926,108.204 59.908,108.204 59.89,108.203 L59.804,105.991 C60.247,106.251 60.563,106.426 60.748,106.684 C61.174,107.272 60.984,107.881 60.312,108.134 C60.184,108.182 60.06,108.204 59.944,108.204" id="Fill-127" fill="#FBFAF4"></path>
                <path d="M14.405,110.78 C13.824,110.46 13.39,110.267 13.143,109.941 C12.978,109.724 13.158,108.966 13.417,108.811 C13.588,108.709 13.763,108.662 13.933,108.662 C14.349,108.662 14.729,108.943 14.92,109.39 C14.996,109.568 14.982,109.78 14.943,110.057 C14.749,110.281 14.57,110.522 14.405,110.78" id="Fill-128" fill="#FBFAF4"></path>
                <path d="M23.525,79.122 L23.203,78.97 C23.166,78.815 23.221,78.643 23.249,78.371 C23.504,78.524 23.659,78.619 23.812,78.715 C23.719,78.853 23.649,79.019 23.525,79.122" id="Fill-129" fill="#FBFAF4"></path>
                <path d="M81.247,95.651 C81.237,95.641 81.227,95.63 81.216,95.62 L81.101,95.22 C81.134,95.182 81.171,95.144 81.197,95.108 C81.279,95.198 81.413,95.287 81.429,95.382 L81.247,95.651" id="Fill-130" fill="#FBFAF4"></path>
                <path d="M75.552,107.644 C74.905,107.644 74.349,107.293 74.104,106.687 C74,106.426 73.906,106.165 73.79,105.859 C73.585,105.887 73.438,105.907 73.329,105.907 C73.059,105.907 73.034,105.785 72.978,105.371 C72.946,105.147 72.908,104.922 72.903,104.697 C72.899,104.059 73.229,103.684 73.869,103.593 C74.07,103.567 74.27,103.542 74.474,103.534 C74.502,103.533 74.531,103.532 74.559,103.532 C75.086,103.532 75.508,103.756 75.734,104.26 C75.898,104.623 76.132,104.892 76.439,105.152 C76.647,105.324 76.808,105.592 76.902,105.845 C77.167,106.567 76.81,107.339 76.152,107.547 C75.948,107.612 75.746,107.644 75.552,107.644" id="Fill-131" fill="#FBFAF4"></path>
                <path d="M15.552,127.644 C14.905,127.644 14.349,127.293 14.104,126.687 C14,126.426 13.906,126.165 13.79,125.859 C13.585,125.887 13.438,125.907 13.329,125.907 C13.059,125.907 13.034,125.785 12.978,125.371 C12.946,125.147 12.908,124.922 12.903,124.697 C12.899,124.059 13.229,123.684 13.869,123.593 C14.07,123.567 14.27,123.542 14.474,123.534 C14.502,123.533 14.531,123.532 14.559,123.532 C15.086,123.532 15.508,123.756 15.734,124.26 C15.898,124.623 16.132,124.892 16.439,125.152 C16.647,125.324 16.808,125.592 16.902,125.845 C17.167,126.567 16.81,127.339 16.152,127.547 C15.948,127.612 15.746,127.644 15.552,127.644" id="Fill-131" fill="#FBFAF4"></path>
                <path d="M118.568,90.354 C118.206,90.354 117.828,90.23 117.589,90.023 C117.094,89.59 116.876,88.609 117.189,88.079 C117.562,87.441 118.148,87.134 118.892,87.134 C118.933,87.134 118.975,87.135 119.017,87.137 C119.741,87.165 120.178,87.664 120.539,88.201 C120.823,88.625 120.627,89.066 120.558,89.532 C120.547,89.532 120.535,89.532 120.525,89.532 C120.06,89.532 119.72,89.615 119.402,90.015 C119.216,90.251 118.898,90.354 118.568,90.354 M118.02,87.924 C118.132,88.415 118.328,88.532 118.603,88.55 L118.694,88.402 C118.514,88.271 118.332,88.145 118.02,87.924" id="Fill-132" fill="#FBFAF4"></path>
                <path d="M140.057,83.986 C139.512,83.986 138.931,83.664 138.658,83.156 C138.362,82.606 138.712,81.625 139.286,81.364 C139.427,81.301 139.588,81.271 139.757,81.271 C140.404,81.271 141.179,81.696 141.458,82.281 C141.641,82.664 141.076,83.656 140.545,83.888 C140.393,83.955 140.227,83.986 140.057,83.986 M139.793,82.179 C139.793,82.268 139.805,82.359 139.811,82.449 L140.003,82.499 C140.019,82.322 140.037,82.143 140.054,81.964 C139.881,81.982 139.807,82.027 139.799,82.083 C139.795,82.115 139.793,82.147 139.793,82.179" id="Fill-133" fill="#FBFAF4"></path>
                <path d="M100.372,41.37 C99.819,41.37 99.093,41.005 98.866,40.543 C98.585,39.972 98.94,39.171 99.6,38.891 C99.798,38.806 99.997,38.765 100.188,38.765 C100.656,38.765 101.075,39.013 101.316,39.466 C101.688,40.164 101.429,40.992 100.733,41.302 C100.629,41.348 100.506,41.37 100.372,41.37" id="Fill-134" fill="#FBFAF4"></path>
                <path d="M109.143,50.938 C108.868,50.938 108.602,50.857 108.352,50.68 C108.221,50.583 108.057,50.37 108.078,50.248 C108.165,49.797 108.29,49.35 108.46,48.928 C108.504,48.818 108.754,48.76 108.921,48.747 C108.961,48.745 109.001,48.744 109.041,48.744 C109.044,48.744 109.047,48.744 109.05,48.744 L110.034,50.537 C109.938,50.656 109.818,50.761 109.668,50.847 C109.49,50.906 109.315,50.938 109.143,50.938" id="Fill-135" fill="#FBFAF4"></path>
                <path d="M145.212,91.458 C145.176,91.458 145.143,91.454 145.114,91.444 C144.526,91.255 143.961,90.996 143.752,90.251 C143.97,90.105 144.17,89.927 144.408,89.827 C144.517,89.78 144.624,89.756 144.727,89.756 C144.937,89.756 145.13,89.855 145.288,90.071 C145.42,90.253 145.601,90.43 145.68,90.634 C145.748,90.823 145.792,91.105 145.693,91.237 C145.609,91.356 145.382,91.458 145.212,91.458" id="Fill-136" fill="#FBFAF4"></path>
                <path d="M124.592,96.383 C124.331,96.383 124.057,96.267 123.93,96.076 C123.746,95.801 123.892,95.251 124.187,95.086 C124.264,95.045 124.356,95.026 124.454,95.026 C124.739,95.026 125.072,95.186 125.2,95.422 C125.359,95.711 125.209,96.168 124.902,96.318 C124.809,96.362 124.701,96.383 124.592,96.383" id="Fill-137" fill="#FBFAF4"></path>
                <path d="M82.407,94.016 C82.159,94.016 81.903,93.882 81.774,93.658 C81.595,93.348 81.703,93.005 82.022,92.856 C82.121,92.81 82.228,92.789 82.335,92.789 C82.594,92.789 82.847,92.914 82.956,93.122 C83.096,93.397 82.968,93.803 82.692,93.949 C82.604,93.995 82.506,94.016 82.407,94.016" id="Fill-138" fill="#FBFAF4"></path>
                <path d="M111.335,91.061 C111.065,91.061 110.793,90.935 110.718,90.713 C110.661,90.547 110.775,90.337 110.794,90.232 C110.966,90.142 111.144,90.101 111.307,90.101 C111.588,90.101 111.826,90.222 111.917,90.418 C112.034,90.672 111.921,90.845 111.707,90.968 C111.599,91.031 111.467,91.061 111.335,91.061" id="Fill-139" fill="#FBFAF4"></path>
                <path d="M101.127,43.677 C100.82,43.53 100.579,43.48 100.457,43.334 C100.29,43.135 100.362,42.902 100.587,42.766 C100.656,42.724 100.739,42.704 100.822,42.704 C101.006,42.704 101.191,42.801 101.228,42.966 C101.271,43.153 101.18,43.357 101.127,43.677" id="Fill-140" fill="#FBFAF4"></path>
                <path d="M122.308,41.037 C122,40.889 121.755,40.842 121.658,40.7 C121.593,40.611 121.685,40.324 121.799,40.233 C121.867,40.178 121.944,40.152 122.019,40.152 C122.158,40.152 122.292,40.24 122.357,40.393 C122.418,40.531 122.339,40.727 122.308,41.037" id="Fill-141" fill="#FBFAF4"></path>
                <path d="M117.926,92.09 C117.731,92.09 117.556,92.018 117.498,91.891 C117.458,91.793 117.507,91.594 117.586,91.523 C117.678,91.448 117.801,91.413 117.923,91.413 C118.121,91.413 118.316,91.504 118.368,91.662 C118.409,91.771 118.327,91.914 118.313,91.99 C118.194,92.058 118.055,92.09 117.926,92.09" id="Fill-142" fill="#FBFAF4"></path>
                <path d="M98.559,92.016 C98.439,92.016 98.264,91.921 98.118,91.879 C98.171,91.72 98.218,91.552 98.295,91.299 C98.523,91.402 98.776,91.465 98.781,91.532 C98.796,91.692 98.74,91.94 98.626,92.002 C98.607,92.012 98.584,92.016 98.559,92.016" id="Fill-143" fill="#FBFAF4"></path>
                <path d="M78.062,53.332 C77.995,53.332 77.868,53.226 77.773,53.176 C77.857,53.019 77.917,52.837 78.038,52.716 C78.043,52.711 78.05,52.709 78.06,52.709 C78.128,52.709 78.314,52.814 78.548,52.901 C78.342,53.105 78.232,53.249 78.085,53.326 C78.079,53.33 78.071,53.332 78.062,53.332" id="Fill-144" fill="#FBFAF4"></path>
                <path d="M146.914,89.981 C146.999,89.774 147.082,89.572 147.188,89.319 C147.198,89.295 147.209,89.27 147.22,89.245 C147.246,89.287 147.27,89.326 147.292,89.363 C147.551,89.8 147.49,89.858 146.914,89.981" id="Fill-145" fill="#FBFAF4"></path>
                <path d="M99.688,48.418 C99.346,48.345 99.141,48.302 98.887,48.245 C99.074,48.109 99.178,48.033 99.269,48.033 C99.383,48.033 99.477,48.151 99.688,48.418" id="Fill-146" fill="#FBFAF4"></path>
                <path d="M84.211,89.584 L84.168,89.475 C84.41,89.363 84.652,89.251 84.896,89.137 L84.977,89.337 C84.722,89.422 84.466,89.501 84.211,89.584" id="Fill-147" fill="#FBFAF4"></path>
                <path d="M108.223,84.186 C108.119,84.186 108.012,84.127 107.905,84.095 L107.982,83.852 C108.007,83.843 108.033,83.84 108.061,83.84 C108.144,83.84 108.245,83.87 108.375,83.888 C108.307,84.035 108.278,84.178 108.234,84.186 C108.231,84.186 108.227,84.186 108.223,84.186" id="Fill-148" fill="#FBFAF4"></path>
                <path d="M97.828,54.063 C97.669,54 97.55,53.991 97.511,53.931 L97.532,53.684 C97.625,53.701 97.738,53.697 97.797,53.752 C97.844,53.791 97.817,53.908 97.828,54.063" id="Fill-149" fill="#FBFAF4"></path>
                <path d="M85.548,105.916 C85.456,105.916 85.35,105.881 85.274,105.827 L85.314,105.592 C85.34,105.584 85.368,105.581 85.398,105.581 C85.477,105.581 85.573,105.603 85.696,105.616 C85.645,105.763 85.628,105.91 85.585,105.914 C85.573,105.915 85.56,105.916 85.548,105.916" id="Fill-150" fill="#FBFAF4"></path>
                <path d="M94.909,46.029 C94.792,45.981 94.704,45.953 94.616,45.916 L94.695,45.691 L94.957,45.804 C94.978,45.821 94.934,45.92 94.909,46.029" id="Fill-151" fill="#FBFAF4"></path>
                <path d="M88.691,109.585 L88.509,109.51 L88.597,109.345 C88.603,109.342 88.61,109.341 88.618,109.341 C88.664,109.341 88.733,109.382 88.816,109.407 L88.691,109.585" id="Fill-152" fill="#FBFAF4"></path>
                <polyline id="Fill-153" fill="#FBFAF4" points="133.849 90.336 133.719 90.294 133.718 90.164 133.854 90.15 133.849 90.336"></polyline>
                <polyline id="Fill-154" fill="#FBFAF4" points="122.464 95.347 122.328 95.127 122.381 95.101 122.549 95.289 122.464 95.347"></polyline>
                <polyline id="Fill-155" fill="#FBFAF4" points="146.118 90.069 145.995 90.052 145.994 89.926 146.124 89.943 146.118 90.069"></polyline>
                <polyline id="Fill-156" fill="#FBFAF4" points="108.142 90.079 108.021 90.023 108.053 89.905 108.181 89.959 108.142 90.079"></polyline>
                <polyline id="Fill-157" fill="#FBFAF4" points="109.878 91.342 109.773 91.248 109.821 91.143 110 91.269 109.878 91.342"></polyline>
                <polyline id="Fill-158" fill="#FBFAF4" points="106.713 95.56 106.708 95.446 106.759 95.46 106.713 95.56"></polyline>
                <path d="M118.603,88.55 C118.328,88.532 118.132,88.415 118.02,87.924 C118.332,88.145 118.514,88.271 118.694,88.402 L118.603,88.55" id="Fill-159" fill="#FBFAF4"></path>
                <path d="M140.003,82.499 L139.811,82.449 C139.805,82.359 139.793,82.268 139.793,82.179 C139.793,82.147 139.795,82.115 139.799,82.083 C139.807,82.027 139.881,81.982 140.054,81.964 C140.037,82.143 140.019,82.322 140.003,82.499" id="Fill-160" fill="#FBFAF4"></path>
                <path d="M118.606,84.553 C118.616,84.174 118.549,83.89 118.644,83.816 C118.699,83.777 118.781,83.762 118.871,83.762 C118.937,83.762 119.006,83.77 119.073,83.783 L119.266,84.116 L119.283,84.247 C119.172,84.373 118.954,84.406 118.606,84.553" id="Fill-161" fill="#FBFAF4"></path>
                <path d="M165.599,66.094 C165.624,65.479 166.13,64.915 166.916,64.709 C167.765,64.483 168.636,64.325 169.625,64.106 C169.66,64.377 169.779,64.617 169.928,64.847 L165.599,66.094" id="Fill-162" fill="#FBFAF4"></path>
                <path d="M128.392,46.673 L127.633,46.476 C127.713,46.46 127.799,46.451 127.887,46.451 C128.043,46.451 128.203,46.479 128.339,46.536 C128.369,46.55 128.384,46.599 128.392,46.673" id="Fill-163" fill="#FBFAF4"></path>
                <path d="M159.696,66.298 C159.643,66.295 159.592,66.294 159.544,66.294 C159.511,66.294 159.48,66.294 159.45,66.295 C159.421,66.295 159.393,66.296 159.367,66.296 C159.275,66.296 159.21,66.29 159.192,66.261 C159.119,66.144 159.094,65.946 159.148,65.828 C159.191,65.736 159.381,65.71 159.505,65.659 C159.56,65.837 159.613,66.024 159.696,66.298" id="Fill-164" fill="#FBFAF4"></path>
                <polyline id="Fill-165" fill="#FBFAF4" points="167.033 15.921 166.938 15.679 167.192 15.619 167.284 15.867 167.033 15.921"></polyline>
                <path d="M121.698,11.016 C121.642,11.016 121.586,11.012 121.531,11.011 L121.564,10.747 L121.829,10.865 L121.812,11.007 C121.775,11.014 121.736,11.016 121.698,11.016" id="Fill-166" fill="#FBFAF4"></path>
                <path d="M152.459,20.917 C150.601,20.027 148.709,19.202 146.79,18.448 C147.043,18.117 147.45,17.832 148.017,17.577 C148.429,17.392 148.894,17.306 149.366,17.306 C150.614,17.306 151.907,17.906 152.383,18.856 C152.622,19.33 152.618,20.135 152.459,20.917" id="Fill-167" fill="#FBFAF4"></path>
                <path d="M182.433,33.154 C182.286,33.154 182.129,33.141 181.966,33.113 C181.856,33.094 181.748,33.073 181.644,33.048 C181.226,32.62 180.803,32.196 180.377,31.777 C180.621,31.746 180.876,31.677 181.142,31.572 C181.317,31.503 181.505,31.371 181.589,31.214 C181.767,30.884 181.935,30.538 182.052,30.179 C182.487,30.035 182.928,29.773 183.439,29.575 C183.65,30.32 183.946,30.937 183.963,31.545 C183.993,32.581 183.39,33.154 182.433,33.154" id="Fill-168" fill="#FBFAF4"></path>
                <path d="M174.11,26.151 C173.282,25.473 172.443,24.811 171.592,24.163 C171.757,23.597 172.152,23.058 172.634,22.869 C172.637,22.867 172.64,22.866 172.643,22.865 C172.655,22.896 172.67,22.927 172.688,22.958 C172.807,23.158 173.034,23.278 173.248,23.278 C173.331,23.278 173.413,23.26 173.485,23.22 C173.611,23.15 173.705,23.017 173.753,22.867 C174.243,23.027 174.69,23.373 174.903,23.823 C175.304,24.662 175.004,25.744 174.272,26.085 C174.22,26.11 174.166,26.132 174.11,26.151" id="Fill-169" fill="#FBFAF4"></path>
                <path d="M131.769,13.573 C131.318,13.573 130.939,13.322 130.776,12.864 C130.64,12.477 130.782,12.01 130.89,11.35 C131.489,11.454 132.085,11.565 132.681,11.682 C132.719,11.713 132.755,11.745 132.788,11.779 C133.281,12.285 132.967,13.187 132.326,13.454 C132.135,13.534 131.946,13.573 131.769,13.573" id="Fill-170" fill="#FBFAF4"></path>
                <path d="M104.869,51.541 L104.431,51.428 C103.86,51.114 103.431,50.922 103.186,50.599 C103.021,50.382 103.2,49.624 103.458,49.467 C103.629,49.365 103.805,49.319 103.975,49.319 C104.391,49.319 104.772,49.6 104.964,50.048 C105.1,50.373 104.943,50.807 104.869,51.541" id="Fill-171" fill="#FBFAF4"></path>
                <path d="M180.377,31.777 C179.548,30.961 178.705,30.162 177.848,29.38 C178.042,28.889 178.386,28.493 178.744,28.098 C178.955,27.867 179.186,27.768 179.503,27.768 C179.512,27.768 179.521,27.768 179.529,27.769 C180.68,27.784 180.743,27.826 181.103,28.957 L181.224,29.145 L181.358,29.142 C181.338,28.936 181.318,28.73 181.297,28.504 C181.966,28.762 182.29,29.338 182.105,30.002 C182.089,30.062 182.072,30.121 182.052,30.179 C181.935,30.538 181.767,30.884 181.589,31.214 C181.505,31.371 181.317,31.503 181.142,31.572 C180.876,31.677 180.621,31.746 180.377,31.777" id="Fill-172" fill="#FBFAF4"></path>
                <path d="M172.782,34.578 C172.464,34.29 172.142,34.002 171.82,33.719 C171.877,33.634 171.959,33.563 172.065,33.513 C172.164,33.468 172.272,33.447 172.378,33.447 C172.638,33.447 172.891,33.572 173,33.78 C173.131,34.04 173.025,34.413 172.782,34.578" id="Fill-173" fill="#FBFAF4"></path>
                <path d="M173.248,23.278 C173.034,23.278 172.807,23.158 172.688,22.958 C172.67,22.927 172.655,22.896 172.643,22.865 C172.548,22.61 172.649,22.344 172.91,22.185 C173.014,22.127 173.125,22.098 173.234,22.098 C173.432,22.098 173.619,22.193 173.722,22.366 C173.804,22.508 173.808,22.698 173.753,22.867 C173.705,23.017 173.611,23.15 173.485,23.22 C173.413,23.26 173.331,23.278 173.248,23.278" id="Fill-174" fill="#FBFAF4"></path>
                <path d="M162.147,16.781 C161.972,16.483 162.111,16.093 162.413,15.974 C162.471,15.951 162.535,15.94 162.602,15.94 C162.843,15.94 163.117,16.077 163.213,16.268 C163.319,16.481 163.044,17.018 162.77,17.105 C162.715,17.123 162.664,17.131 162.617,17.131 C162.403,17.131 162.258,16.969 162.147,16.781 Z" id="Fill-175" fill="#FBFAF4"></path>
                <path d="M168.688,19.051 C168.548,19.051 168.383,19.008 168.268,18.95 C168.163,18.901 168.089,18.638 168.116,18.496 C168.159,18.282 168.33,18.223 168.525,18.223 C168.57,18.223 168.617,18.226 168.663,18.231 C168.918,18.259 169.17,18.287 169.54,18.325 C169.309,18.577 169.137,18.851 168.886,19.008 C168.835,19.038 168.766,19.051 168.688,19.051" id="Fill-176" fill="#FBFAF4"></path>
                <path d="M151.512,9.902 C151.357,9.902 151.159,9.778 151.1,9.617 C151.008,9.376 151.065,9.147 151.318,9.078 C151.343,9.072 151.369,9.069 151.397,9.069 C151.539,9.069 151.717,9.139 151.967,9.187 C151.832,9.486 151.791,9.706 151.659,9.846 C151.622,9.884 151.57,9.902 151.512,9.902" id="Fill-177" fill="#FBFAF4"></path>
                <path d="M154.391,19.611 C154.177,19.52 153.972,19.491 153.945,19.408 C153.9,19.277 153.966,19.114 153.986,18.962 C154.136,19 154.35,19 154.417,19.094 C154.484,19.194 154.409,19.383 154.391,19.611" id="Fill-178" fill="#FBFAF4"></path>
            </g>
        </g>
    </g>
</svg>